<svg width="118" height="24" viewBox="0 0 118 24" fill="none" xmlns="http://www.w3.org/2000/svg">
<path d="M10.9714 2.46103C11.2231 1.6864 12.319 1.6864 12.5707 2.46103L14.225 7.55262C14.3376 7.89905 14.6604 8.13359 15.0247 8.13359L20.3783 8.1336C21.1928 8.1336 21.5314 9.17585 20.8725 9.6546L16.5413 12.8014C16.2467 13.0155 16.1233 13.395 16.2359 13.7414L17.8903 18.833C18.142 19.6076 17.2554 20.2518 16.5964 19.773L12.2653 16.6263C11.9706 16.4121 11.5715 16.4121 11.2768 16.6263L6.94568 19.773C6.28674 20.2518 5.40015 19.6076 5.65184 18.833L7.3062 13.7414C7.41876 13.395 7.29545 13.0155 7.00076 12.8014L2.6696 9.6546C2.01066 9.17585 2.34931 8.1336 3.1638 8.1336L8.51742 8.13359C8.88167 8.13359 9.20449 7.89905 9.31705 7.55262L10.9714 2.46103Z" fill="#A26762"/>
<path d="M34.5134 2.46103C34.7651 1.6864 35.861 1.6864 36.1127 2.46103L37.767 7.55262C37.8796 7.89905 38.2024 8.13359 38.5667 8.13359L43.9203 8.1336C44.7348 8.1336 45.0734 9.17585 44.4145 9.6546L40.0833 12.8014C39.7886 13.0155 39.6653 13.395 39.7779 13.7414L41.4323 18.833C41.6839 19.6076 40.7973 20.2518 40.1384 19.773L35.8072 16.6263C35.5126 16.4121 35.1135 16.4121 34.8188 16.6263L30.4877 19.773C29.8287 20.2518 28.9421 19.6076 29.1938 18.833L30.8482 13.7414C30.9607 13.395 30.8374 13.0155 30.5428 12.8014L26.2116 9.6546C25.5527 9.17585 25.8913 8.1336 26.7058 8.1336L32.0594 8.13359C32.4237 8.13359 32.7465 7.89905 32.859 7.55262L34.5134 2.46103Z" fill="#A26762"/>
<path d="M58.0556 2.46103C58.3073 1.6864 59.4032 1.6864 59.6549 2.46103L61.3093 7.55262C61.4218 7.89905 61.7447 8.13359 62.1089 8.13359L67.4625 8.1336C68.277 8.1336 68.6157 9.17585 67.9567 9.6546L63.6256 12.8014C63.3309 13.0155 63.2076 13.395 63.3201 13.7414L64.9745 18.833C65.2262 19.6076 64.3396 20.2518 63.6806 19.773L59.3495 16.6263C59.0548 16.4121 58.6558 16.4121 58.3611 16.6263L54.0299 19.773C53.371 20.2518 52.4844 19.6076 52.7361 18.833L54.3904 13.7414C54.503 13.395 54.3797 13.0155 54.085 12.8014L49.7538 9.6546C49.0949 9.17585 49.4335 8.1336 50.248 8.1336L55.6016 8.13359C55.9659 8.13359 56.2887 7.89905 56.4013 7.55262L58.0556 2.46103Z" fill="#A26762"/>
<path d="M81.5976 2.46103C81.8493 1.6864 82.9452 1.6864 83.1969 2.46103L84.8513 7.55262C84.9638 7.89905 85.2867 8.13359 85.6509 8.13359L91.0045 8.1336C91.819 8.1336 92.1577 9.17585 91.4987 9.6546L87.1676 12.8014C86.8729 13.0155 86.7496 13.395 86.8621 13.7414L88.5165 18.833C88.7682 19.6076 87.8816 20.2518 87.2226 19.773L82.8915 16.6263C82.5968 16.4121 82.1978 16.4121 81.9031 16.6263L77.5719 19.773C76.913 20.2518 76.0264 19.6076 76.2781 18.833L77.9324 13.7414C78.045 13.395 77.9217 13.0155 77.627 12.8014L73.2958 9.6546C72.6369 9.17585 72.9755 8.1336 73.79 8.1336L79.1436 8.13359C79.5079 8.13359 79.8307 7.89905 79.9433 7.55262L81.5976 2.46103Z" fill="#A26762"/>
<path d="M105.14 2.46103C105.392 1.6864 106.487 1.6864 106.739 2.46103L108.394 7.55262C108.506 7.89905 108.829 8.13359 109.193 8.13359L114.547 8.1336C115.361 8.1336 115.7 9.17585 115.041 9.6546L110.71 12.8014C110.415 13.0155 110.292 13.395 110.404 13.7414L112.059 18.833C112.31 19.6076 111.424 20.2518 110.765 19.773L106.434 16.6263C106.139 16.4121 105.74 16.4121 105.445 16.6263L101.114 19.773C100.455 20.2518 99.5686 19.6076 99.8203 18.833L101.475 13.7414C101.587 13.395 101.464 13.0155 101.169 12.8014L96.8381 9.6546C96.1791 9.17585 96.5178 8.1336 97.3323 8.1336L102.686 8.13359C103.05 8.13359 103.373 7.89905 103.486 7.55262L105.14 2.46103Z" fill="#A26762"/>
</svg>
