<svg width="67" height="66" viewBox="0 0 67 66" fill="none" xmlns="http://www.w3.org/2000/svg">
<g id="14384984701536057694">
<path id="Vector" d="M27.743 14.5265L26.9131 19.336C26.8749 19.6185 26.9157 19.9061 27.0311 20.1668C27.1464 20.4275 27.3318 20.6511 27.5666 20.8128C27.8252 20.9998 28.1362 21.1004 28.4553 21.1004C28.6845 21.0868 28.9078 21.0221 29.1088 20.9109L33.5589 18.6564L37.7476 20.8716C38.006 20.9988 38.2943 21.0526 38.5812 21.0272C38.8681 21.0019 39.1426 20.8983 39.3747 20.7279C39.6117 20.5651 39.7984 20.3394 39.9139 20.0761C40.0293 19.8128 40.0689 19.5226 40.0282 19.238L39.2048 14.4546L42.6878 11.1089C42.8824 10.9032 43.0175 10.6485 43.0786 10.372C43.1396 10.0955 43.1244 9.80764 43.0344 9.53914C42.9445 9.27064 42.7832 9.03165 42.5679 8.84774C42.3526 8.66382 42.0914 8.5419 41.8121 8.49501L37.0288 7.73046L34.905 3.35878C34.8695 3.28841 34.8256 3.22259 34.7743 3.16274C34.5921 2.92877 34.3527 2.74571 34.0791 2.63125C33.8055 2.51679 33.5071 2.47477 33.2125 2.50927C32.9542 2.54664 32.7095 2.64898 32.5015 2.8067C32.2935 2.96443 32.1289 3.17237 32.0232 3.41105L29.906 7.79581L25.1292 8.49501C24.844 8.54008 24.5768 8.66297 24.3571 8.85015C24.1373 9.03733 23.9735 9.28154 23.8836 9.55587C23.7937 9.83021 23.7813 10.124 23.8477 10.405C23.9142 10.6859 24.0568 10.943 24.26 11.1481L27.743 14.5265ZM30.7032 9.66472C30.8586 9.64399 31.0068 9.58629 31.1353 9.49647C31.2637 9.40664 31.3688 9.28731 31.4416 9.14848L33.487 4.95323L35.4997 9.08313C35.5692 9.22684 35.6729 9.35138 35.8016 9.44591C35.9303 9.54043 36.0801 9.60209 36.2381 9.62551L40.7274 10.279L37.46 13.4287C37.345 13.5392 37.2587 13.6761 37.2086 13.8276C37.1585 13.9791 37.1461 14.1405 37.1725 14.2978L37.9436 18.774L34.0228 16.7287C33.8843 16.6576 33.7309 16.6205 33.5752 16.6205C33.4195 16.6205 33.2661 16.6576 33.1276 16.7287L28.9977 18.8198L29.7622 14.3762C29.7886 14.2189 29.7763 14.0575 29.7262 13.906C29.676 13.7546 29.5897 13.6176 29.4747 13.5071L26.2074 10.3574L30.7032 9.66472Z" fill="#3A3A3A"/>
<path id="Vector_2" d="M48.5296 26.792H40.0345C39.7746 26.792 39.5253 26.8953 39.3414 27.0791C39.1576 27.2629 39.0543 27.5122 39.0543 27.7722V37.9009H27.9454V27.7722C27.9454 27.5122 27.8422 27.2629 27.6583 27.0791C27.4745 26.8953 27.2252 26.792 26.9652 26.792H18.4702C18.2102 26.792 17.9609 26.8953 17.7771 27.0791C17.5933 27.2629 17.49 27.5122 17.49 27.7722V58.4851C17.49 58.745 17.5933 58.9943 17.7771 59.1782C17.9609 59.362 18.2102 59.4653 18.4702 59.4653H26.9652C27.2252 59.4653 27.4745 59.362 27.6583 59.1782C27.8422 58.9943 27.9454 58.745 27.9454 58.4851V48.3563H39.0543V58.4851C39.0543 58.745 39.1576 58.9943 39.3414 59.1782C39.5253 59.362 39.7746 59.4653 40.0345 59.4653H48.5296C48.7896 59.4653 49.0389 59.362 49.2227 59.1782C49.4065 58.9943 49.5098 58.745 49.5098 58.4851V27.7722C49.5098 27.5122 49.4065 27.2629 49.2227 27.0791C49.0389 26.8953 48.7896 26.792 48.5296 26.792ZM47.5494 57.5049H41.0147V47.3762C41.0147 47.1162 40.9115 46.8669 40.7276 46.683C40.5438 46.4992 40.2945 46.396 40.0345 46.396H26.9652C26.7053 46.396 26.456 46.4992 26.2721 46.683C26.0883 46.8669 25.985 47.1162 25.985 47.3762V57.5049H19.4504V28.7524H25.985V38.8811C25.985 39.1411 26.0883 39.3904 26.2721 39.5742C26.456 39.758 26.7053 39.8613 26.9652 39.8613H40.0345C40.2945 39.8613 40.5438 39.758 40.7276 39.5742C40.9115 39.3904 41.0147 39.1411 41.0147 38.8811V28.7524H47.5494V57.5049Z" fill="#3A3A3A"/>
</g>
</svg>
