<svg width="66" height="66" viewBox="0 0 66 66" fill="none" xmlns="http://www.w3.org/2000/svg">
<g id="14926792251536057695">
<path id="Vector" d="M37.8224 45.2526L47.1539 30.2229C47.1849 30.1732 47.2111 30.1207 47.2323 30.0661C48.8428 27.4259 49.6991 24.3949 49.7082 21.3023C49.7173 18.2097 48.8789 15.1737 47.284 12.5241C45.6891 9.87446 43.3987 7.71248 40.6616 6.27295C37.9244 4.83342 34.8451 4.17138 31.7582 4.35873C27.7662 4.62406 23.9947 6.28483 21.1037 9.0504C18.2127 11.816 16.3864 15.5102 15.9444 19.4864C15.5484 23.1934 16.3967 26.9268 18.3556 30.0987C18.3761 30.1462 18.4001 30.1921 18.4275 30.236L27.3735 45.2068C20.1853 46.1152 15.8071 48.9055 15.8071 52.6106C15.8071 57.0019 23.2566 60.4522 32.7972 60.4522C42.3378 60.4522 49.7873 57.0084 49.7873 52.6106C49.7285 49.01 45.0889 46.174 37.8224 45.2526ZM20.1135 29.21C18.3224 26.377 17.5418 23.0217 17.8982 19.689C18.2891 16.1746 19.9035 12.9097 22.4588 10.4655C25.0141 8.02126 28.3476 6.55353 31.8758 6.31912C34.62 6.15065 37.3574 6.74173 39.7875 8.02745C42.2177 9.31316 44.2464 11.2438 45.651 13.6072C47.0555 15.9706 47.7815 18.6754 47.7492 21.4245C47.7169 24.1736 46.9276 26.8606 45.4679 29.1904C45.4371 29.2402 45.4108 29.2927 45.3895 29.3472L32.5358 50.0294L20.205 29.4061C20.1821 29.3374 20.1514 29.2716 20.1135 29.21ZM32.7646 58.4853C23.9232 58.4853 17.7349 55.3878 17.7349 52.6041C17.7349 49.9902 22.1327 47.6835 28.4386 47.0431L31.6471 52.408C31.7331 52.5519 31.8546 52.6712 31.9999 52.7547C32.1452 52.8383 32.3095 52.8831 32.477 52.8851C32.6454 52.8892 32.8121 52.8499 32.9609 52.771C33.1097 52.692 33.2356 52.576 33.3265 52.4342L36.6461 47.1019C43.1024 47.7554 47.755 50.0425 47.755 52.6171C47.7681 55.3878 41.6059 58.4853 32.7646 58.4853Z" fill="#3A3A3A"/>
<path id="Vector_2" d="M39.2537 20.9503C39.2537 19.7277 38.8912 18.5325 38.2119 17.5159C37.5326 16.4993 36.5672 15.707 35.4376 15.2391C34.308 14.7712 33.0651 14.6488 31.8659 14.8873C30.6668 15.1259 29.5653 15.7146 28.7007 16.5792C27.8362 17.4437 27.2474 18.5452 27.0089 19.7443C26.7704 20.9435 26.8928 22.1864 27.3607 23.316C27.8286 24.4456 28.6209 25.411 29.6375 26.0903C30.6541 26.7696 31.8493 27.1321 33.0719 27.1321C34.7109 27.1304 36.2823 26.4785 37.4412 25.3196C38.6001 24.1607 39.252 22.5893 39.2537 20.9503ZM28.8505 20.9503C28.8505 20.1154 29.0981 19.2993 29.562 18.6051C30.0258 17.9109 30.6851 17.3698 31.4565 17.0503C32.2278 16.7308 33.0766 16.6472 33.8955 16.8101C34.7143 16.9729 35.4665 17.375 36.0569 17.9654C36.6473 18.5557 37.0493 19.3079 37.2122 20.1268C37.3751 20.9457 37.2915 21.7944 36.972 22.5658C36.6525 23.3372 36.1114 23.9964 35.4172 24.4603C34.723 24.9241 33.9068 25.1717 33.0719 25.1717C31.954 25.1683 30.883 24.7222 30.0931 23.9311C29.3032 23.14 28.8588 22.0683 28.8571 20.9503H28.8505Z" fill="#3A3A3A"/>
</g>
</svg>
