<svg width="66" height="66" viewBox="0 0 66 66" fill="none" xmlns="http://www.w3.org/2000/svg">
<g id="16382703891637076399 1">
<path id="Vector" d="M63.9375 34.0312H60.8438V14.9531C60.8427 13.9961 60.4621 13.0787 59.7854 12.4021C59.1088 11.7254 58.1914 11.3448 57.2344 11.3438H8.76562C7.80869 11.3448 6.89124 11.7254 6.21458 12.4021C5.53792 13.0787 5.15731 13.9961 5.15625 14.9531V34.0312H2.0625C1.789 34.0312 1.52669 34.1399 1.33329 34.3333C1.1399 34.5266 1.03125 34.789 1.03125 35.0625V47.4375C1.03125 47.711 1.1399 47.9734 1.33329 48.1667C1.52669 48.3601 1.789 48.4688 2.0625 48.4688V50.5312C2.0625 50.8048 2.17115 51.0671 2.36454 51.2605C2.55794 51.4538 2.82025 51.5625 3.09375 51.5625H4.125V53.625C4.125 53.8985 4.23366 54.1609 4.42704 54.3542C4.62044 54.5476 4.88275 54.6562 5.15625 54.6562H8.25C8.46645 54.6562 8.67741 54.5882 8.85302 54.4616C9.02862 54.335 9.15995 54.1565 9.2284 53.9511L10.025 51.5625H55.8461L56.6427 53.9511C56.7111 54.1565 56.8425 54.335 57.0181 54.4616C57.1936 54.5882 57.4047 54.6562 57.6211 54.6562H60.7148C60.9884 54.6562 61.2507 54.5476 61.4441 54.3542C61.6374 54.1609 61.7461 53.8985 61.7461 53.625V51.5625H62.9062C63.1798 51.5625 63.4421 51.4538 63.6355 51.2605C63.8288 51.0671 63.9375 50.8048 63.9375 50.5312V48.4688C64.211 48.4688 64.4734 48.3601 64.6667 48.1667C64.8601 47.9734 64.9688 47.711 64.9688 47.4375V35.0625C64.9688 34.789 64.8601 34.5266 64.6667 34.3333C64.4734 34.1399 64.211 34.0312 63.9375 34.0312ZM7.21875 14.9531C7.21909 14.5429 7.38218 14.1498 7.67219 13.8597C7.96222 13.5697 8.35547 13.4066 8.76562 13.4062H57.2344C57.6446 13.4066 58.0377 13.5697 58.3278 13.8597C58.6178 14.1498 58.7809 14.5429 58.7812 14.9531V34.0312H53.625V29.3906C53.624 28.4336 53.2433 27.5162 52.5667 26.8396C51.8901 26.1629 50.9726 25.7823 50.0156 25.7812H38.6719C37.7149 25.7823 36.7974 26.1629 36.1208 26.8396C35.4442 27.5162 35.0635 28.4336 35.0625 29.3906V34.0312H30.9375V29.3906C30.9365 28.4336 30.5558 27.5162 29.8792 26.8396C29.2025 26.1629 28.2851 25.7823 27.3281 25.7812H15.9844C15.0274 25.7823 14.1099 26.1629 13.4333 26.8396C12.7567 27.5162 12.3761 28.4336 12.375 29.3906V34.0312H7.21875V14.9531ZM51.5625 29.3906V34.0312H37.125V29.3906C37.1254 28.9804 37.2885 28.5873 37.5785 28.2972C37.8685 28.0072 38.2617 27.8441 38.6719 27.8438H50.0156C50.4258 27.8441 50.819 28.0072 51.109 28.2972C51.399 28.5873 51.5621 28.9804 51.5625 29.3906ZM28.875 29.3906V34.0312H14.4375V29.3906C14.4379 28.9804 14.601 28.5873 14.891 28.2972C15.181 28.0072 15.5742 27.8441 15.9844 27.8438H27.3281C27.7383 27.8441 28.1315 28.0072 28.4215 28.2972C28.7115 28.5873 28.8746 28.9804 28.875 29.3906ZM7.50621 52.5938H6.1875V51.5625H7.85039L7.50621 52.5938ZM59.6836 52.5938H58.3649L58.0207 51.5625H59.6836V52.5938ZM61.875 49.5H4.125V48.4688H61.875V49.5ZM62.9062 46.4062H3.09375V36.0938H62.9062V46.4062Z" fill="#3A3A3A"/>
</g>
</svg>
