<svg width="40" height="40" viewBox="0 0 40 40" fill="none" xmlns="http://www.w3.org/2000/svg">
<g id="vuesax/linear/routing-2">
<g id="routing-2">
<path id="Vector" d="M9.11654 14.9997C12.3382 14.9997 14.9499 12.388 14.9499 9.16634C14.9499 5.94468 12.3382 3.33301 9.11654 3.33301C5.89488 3.33301 3.2832 5.94468 3.2832 9.16634C3.2832 12.388 5.89488 14.9997 9.11654 14.9997Z" stroke="#A26762" stroke-width="1.5"/>
<path id="Vector_2" d="M28.2835 25H33.2835C35.1169 25 36.6169 26.5 36.6169 28.3333V33.3333C36.6169 35.1667 35.1169 36.6667 33.2835 36.6667H28.2835C26.4502 36.6667 24.9502 35.1667 24.9502 33.3333V28.3333C24.9502 26.5 26.4502 25 28.2835 25Z" stroke="#A26762" stroke-width="1.5"/>
<path id="Vector_3" d="M19.9998 8.33301H24.4665C27.5498 8.33301 28.9832 12.1497 26.6665 14.183L13.3498 25.833C11.0332 27.8497 12.4665 31.6663 15.5332 31.6663H19.9998" stroke="#A26762" stroke-width="1.5" stroke-linecap="round" stroke-linejoin="round"/>
<path id="Vector_4" d="M9.14369 9.16634H9.16295" stroke="#A26762" stroke-width="2" stroke-linecap="round" stroke-linejoin="round"/>
<path id="Vector_5" d="M30.8102 30.8333H30.8295" stroke="#A26762" stroke-width="2" stroke-linecap="round" stroke-linejoin="round"/>
</g>
</g>
</svg>
