<svg width="40" height="40" viewBox="0 0 40 40" fill="none" xmlns="http://www.w3.org/2000/svg">
<g id="vuesax/linear/call">
<g id="call">
<g id="call_2">
<path id="Vector" d="M36.6168 30.5497C36.6168 31.1497 36.4835 31.7663 36.2002 32.3663C35.9168 32.9663 35.5502 33.533 35.0668 34.0663C34.2502 34.9663 33.3502 35.6163 32.3335 36.033C31.3335 36.4497 30.2502 36.6663 29.0835 36.6663C27.3835 36.6663 25.5668 36.2663 23.6502 35.4497C21.7335 34.633 19.8168 33.533 17.9168 32.1497C16.0002 30.7497 14.1835 29.1997 12.4502 27.483C10.7335 25.7497 9.1835 23.933 7.80016 22.033C6.4335 20.133 5.3335 18.233 4.5335 16.3497C3.7335 14.4497 3.3335 12.633 3.3335 10.8997C3.3335 9.76634 3.5335 8.68301 3.9335 7.68301C4.3335 6.66634 4.96683 5.73301 5.85016 4.89967C6.91683 3.84967 8.0835 3.33301 9.31683 3.33301C9.7835 3.33301 10.2502 3.43301 10.6668 3.63301C11.1002 3.83301 11.4835 4.13301 11.7835 4.56634L15.6502 10.0163C15.9502 10.433 16.1668 10.8163 16.3168 11.183C16.4668 11.533 16.5502 11.883 16.5502 12.1997C16.5502 12.5997 16.4335 12.9997 16.2002 13.383C15.9835 13.7663 15.6668 14.1663 15.2668 14.5663L14.0002 15.883C13.8168 16.0663 13.7335 16.283 13.7335 16.5497C13.7335 16.683 13.7502 16.7997 13.7835 16.933C13.8335 17.0663 13.8835 17.1663 13.9168 17.2663C14.2168 17.8163 14.7335 18.533 15.4668 19.3997C16.2168 20.2663 17.0168 21.1497 17.8835 22.033C18.7835 22.9163 19.6502 23.733 20.5335 24.483C21.4002 25.2163 22.1168 25.7163 22.6835 26.0163C22.7668 26.0497 22.8668 26.0997 22.9835 26.1497C23.1168 26.1997 23.2502 26.2163 23.4002 26.2163C23.6835 26.2163 23.9002 26.1163 24.0835 25.933L25.3502 24.683C25.7668 24.2663 26.1668 23.9497 26.5502 23.7497C26.9335 23.5163 27.3168 23.3997 27.7335 23.3997C28.0502 23.3997 28.3835 23.4663 28.7502 23.6163C29.1168 23.7663 29.5002 23.983 29.9168 24.2663L35.4335 28.183C35.8668 28.483 36.1668 28.833 36.3502 29.2497C36.5168 29.6663 36.6168 30.083 36.6168 30.5497Z" stroke="#A26762" stroke-width="1.5" stroke-miterlimit="10"/>
</g>
</g>
</g>
</svg>
