<svg width="66" height="66" viewBox="0 0 66 66" fill="none" xmlns="http://www.w3.org/2000/svg">
<g id="14926792251536057695">
<path id="Vector" d="M20.1138 29.2095C18.3227 26.3765 17.542 23.0212 17.8985 19.6885C18.2894 16.1742 19.9038 12.9092 22.4591 10.465C25.0144 8.02077 28.3479 6.55304 31.8761 6.31863C34.6202 6.15016 37.3577 6.74125 39.7878 8.02696C42.218 9.31268 44.2467 11.2433 45.6513 13.6067C47.0558 15.9701 47.7818 18.6749 47.7495 21.424C47.7172 24.1731 46.9279 26.8601 45.4682 29.1899C45.4373 29.2397 45.4111 29.2922 45.3898 29.3468L32.5361 50.0289L20.2052 29.4056C20.1824 29.3369 20.1517 29.2711 20.1138 29.2095Z" fill="#9DB7A4"/>
<path id="Vector_2" d="M39.2537 20.9503C39.2537 19.7277 38.8912 18.5325 38.2119 17.5159C37.5326 16.4993 36.5672 15.707 35.4376 15.2391C34.308 14.7712 33.0651 14.6488 31.8659 14.8873C30.6668 15.1259 29.5653 15.7146 28.7007 16.5792C27.8362 17.4437 27.2474 18.5452 27.0089 19.7443C26.7704 20.9435 26.8928 22.1864 27.3607 23.316C27.8286 24.4456 28.6209 25.411 29.6375 26.0903C30.6541 26.7696 31.8493 27.1321 33.0719 27.1321C34.7109 27.1304 36.2823 26.4785 37.4412 25.3196C38.6001 24.1607 39.252 22.5893 39.2537 20.9503Z" fill="#FAFAFA"/>
</g>
</svg>
