<svg width="67" height="66" viewBox="0 0 67 66" fill="none" xmlns="http://www.w3.org/2000/svg">
<g id="17104675191536057695">
<path id="Vector" d="M26.6384 48.2256C27.6922 47.1881 28.4733 45.9064 28.9125 44.4943C29.1695 44.4159 29.4244 44.3288 29.677 44.2329C29.7238 44.3422 29.7902 44.4418 29.8731 44.527L31.742 46.3959C31.9278 46.569 32.1736 46.6633 32.4275 46.6588C32.6814 46.6544 32.9237 46.5515 33.1033 46.3719C33.2829 46.1923 33.3858 45.95 33.3903 45.6961C33.3947 45.4421 33.3005 45.1964 33.1273 45.0106L31.5067 43.39C32.2778 42.9495 33.0101 42.4445 33.6959 41.8805L35.0028 43.1874C35.1886 43.3605 35.4344 43.4548 35.6883 43.4503C35.9422 43.4458 36.1845 43.343 36.3641 43.1634C36.5437 42.9838 36.6466 42.7415 36.6511 42.4876C36.6555 42.2336 36.5613 41.9879 36.3881 41.802L35.1335 40.5147C35.73 39.8643 36.2557 39.1524 36.7018 38.391L38.2048 39.8939C38.391 40.0307 38.6195 40.0973 38.85 40.082C39.0806 40.0667 39.2983 39.9704 39.4648 39.8102C39.6312 39.65 39.7357 39.4361 39.7599 39.2063C39.784 38.9765 39.7262 38.7456 39.5966 38.5543L37.7473 36.6723C37.7201 36.6512 37.6918 36.6315 37.6624 36.6135C37.9172 36.0777 38.1525 35.5353 38.3747 34.9864C40.2546 36.2845 42.4244 37.1012 44.6937 37.365C45.1776 38.8523 46.0348 40.1906 47.1832 41.2523C48.3317 42.3139 49.7332 43.0634 51.2539 43.4291C52.7745 43.7949 54.3635 43.7646 55.8692 43.3414C57.3748 42.9181 58.7468 42.1159 59.8541 41.0114C63.1933 37.6721 66.8069 28.883 63.1802 25.1321C63.0896 25.038 62.9811 24.9628 62.861 24.9112C62.7409 24.8596 62.6117 24.8325 62.481 24.8316C62.004 24.8316 61.9974 24.8316 54.6002 32.2876L54.2016 26.0927C54.1933 25.9561 54.1564 25.8227 54.0934 25.7011C54.0304 25.5796 53.9426 25.4725 53.8357 25.387C53.7281 25.3018 53.604 25.2398 53.4713 25.205C53.3386 25.1701 53.2001 25.1631 53.0646 25.1844C51.1695 25.485 48.3727 26.6155 46.8959 28.0989C45.955 29.0477 45.2334 30.1912 44.7818 31.4489C44.3302 32.7065 44.1596 34.0478 44.282 35.3785C42.3983 35.0093 40.6157 34.2405 39.0543 33.124C39.7441 31.0803 40.2985 28.9935 40.7141 26.8769C40.7437 26.7197 40.7343 26.5576 40.6869 26.4049C40.6395 26.2521 40.5554 26.1133 40.4419 26.0005C40.3285 25.8877 40.1892 25.8044 40.0361 25.7578C39.8831 25.7113 39.721 25.7028 39.564 25.7333C37.4575 26.1663 35.3798 26.7294 33.343 27.4193C32.2643 25.9127 31.5018 24.2033 31.1016 22.3941C31.4357 22.4321 31.7717 22.4517 32.1079 22.4529C34.5334 22.4548 36.8604 21.4935 38.5772 19.7803C40.0345 18.323 41.1519 15.5262 41.4656 13.6312C41.4881 13.4921 41.4804 13.3498 41.443 13.214C41.4056 13.0782 41.3394 12.9521 41.2489 12.8442C41.1583 12.7363 41.0456 12.6491 40.9184 12.5887C40.7911 12.5283 40.6523 12.4961 40.5115 12.4941L34.7806 12.4157C42.1974 5.02501 42.1974 4.99888 42.1974 4.57412C42.1965 4.44342 42.1694 4.31423 42.1178 4.19415C42.0662 4.07407 41.991 3.96553 41.8968 3.87492C38.0675 0.169766 28.8275 3.67234 25.6582 6.84165C24.5684 7.93493 23.773 9.2862 23.346 10.7696C22.919 12.2531 22.8743 13.8204 23.216 15.3258C23.5578 16.8312 24.2749 18.2256 25.3007 19.3792C26.3264 20.5328 27.6273 21.4081 29.0824 21.9236C29.3752 24.1413 30.1904 26.2578 31.461 28.0989C30.9186 28.3145 30.3828 28.5432 29.86 28.7916L28.0434 26.9749C27.8597 26.7886 27.6095 26.6829 27.3478 26.6811C27.0862 26.6792 26.8345 26.7814 26.6482 26.9651C26.4619 27.1488 26.3562 27.399 26.3544 27.6607C26.3525 27.9223 26.4547 28.174 26.6384 28.3603L28.0238 29.7456C27.2572 30.1875 26.5407 30.7112 25.8869 31.3074L24.7891 30.2096C24.6033 30.0364 24.3575 29.9422 24.1036 29.9466C23.8497 29.9511 23.6074 30.054 23.4278 30.2336C23.2482 30.4132 23.1453 30.6555 23.1409 30.9094C23.1364 31.1633 23.2306 31.4091 23.4038 31.5949L24.5604 32.7516C23.9927 33.4411 23.5019 34.1905 23.0967 34.9864L21.561 33.4508C21.3752 33.2776 21.1294 33.1834 20.8755 33.1878C20.6216 33.1923 20.3793 33.2952 20.1997 33.4748C20.0201 33.6544 19.9172 33.8967 19.9127 34.1506C19.9083 34.4045 20.0025 34.6503 20.1757 34.8361L22.0642 36.6723C22.1556 36.7647 22.2644 36.838 22.3844 36.888C22.319 37.1232 22.2537 37.365 22.2014 37.6068C20.7487 38.0364 19.4288 38.8278 18.3656 39.907C18.1157 40.1594 17.8801 40.4256 17.6598 40.7042C17.5925 40.6974 17.5246 40.6974 17.4572 40.7042C14.1899 41.5341 8.40021 45.2131 8.15843 45.37C8.09938 45.4075 8.0446 45.4513 7.99507 45.5007C7.26155 46.196 6.83325 47.1535 6.80386 48.1638C6.77447 49.1741 7.14638 50.1549 7.83823 50.8917C8.19183 51.2421 8.61423 51.5153 9.07874 51.6941C9.54326 51.8729 10.0398 51.9535 10.537 51.9308H10.6547C10.611 52.4472 10.6806 52.967 10.8585 53.4538C11.0365 53.9406 11.3186 54.3827 11.6851 54.7492C12.0516 55.1157 12.4937 55.3978 12.9805 55.5758C13.4673 55.7538 13.9871 55.8234 14.5036 55.7797C14.4607 56.2739 14.5217 56.7716 14.6827 57.2408C14.8437 57.71 15.1011 58.1403 15.4384 58.5041C15.7757 58.8678 16.1854 59.1569 16.6411 59.3529C17.0969 59.5488 17.5885 59.6472 18.0846 59.6416C18.6137 59.6389 19.1372 59.5319 19.6249 59.3267C20.1127 59.1215 20.5552 58.8222 20.9271 58.4458C20.9795 58.3925 21.0256 58.3333 21.0644 58.2694C21.2016 58.0472 24.482 52.7541 25.5471 49.4084C25.5726 49.3213 25.5858 49.2312 25.5864 49.1405C25.9585 48.8611 26.3101 48.5554 26.6384 48.2256ZM48.3008 29.4646C49.4682 28.4774 50.8412 27.763 52.3196 27.3735L52.7836 34.5616C52.7912 34.7521 52.8542 34.9361 52.9648 35.0913C53.0754 35.2465 53.2288 35.366 53.4063 35.4354C53.5838 35.5047 53.7777 35.5208 53.9642 35.4817C54.1507 35.4426 54.3218 35.3499 54.4565 35.2151C57.0703 32.6013 60.7232 28.9092 62.298 27.3213C63.7553 30.4121 61.2721 36.8488 58.4622 39.626C57.1021 40.9106 55.2947 41.6142 53.424 41.5875C51.5534 41.5608 49.7668 40.8058 48.4439 39.4829C47.121 38.16 46.366 36.3735 46.3393 34.5028C46.3126 32.6321 47.0163 30.8248 48.3008 29.4646ZM24.9394 13.2914C24.9366 12.3469 25.1211 11.4113 25.4823 10.5386C25.8435 9.66596 26.3741 8.8736 27.0436 8.20739C29.1216 6.12937 33.7351 4.21472 37.1788 4.21472C38.0477 4.1892 38.9113 4.35658 39.7077 4.70482C38.1133 6.31234 34.382 10.024 31.742 12.6444C31.6072 12.7791 31.5145 12.9502 31.4754 13.1367C31.4363 13.3232 31.4524 13.517 31.5217 13.6945C31.5911 13.872 31.7106 14.0255 31.8658 14.1361C32.021 14.2467 32.2051 14.3097 32.3955 14.3173L39.2568 14.4088C38.8671 15.8655 38.1597 17.2179 37.1854 18.3688C36.1791 19.3652 34.901 20.0423 33.5114 20.3149C32.1217 20.5875 30.6825 20.4436 29.3744 19.9012C28.0663 19.3589 26.9475 18.4422 26.1585 17.2662C25.3694 16.0903 24.9454 14.7075 24.9394 13.2914ZM33.2776 29.5038C34.9918 28.8997 36.7368 28.3871 38.5054 27.9682C37.8519 30.7454 36.2182 36.7116 33.5913 39.345C32.3532 40.6085 30.8789 41.6165 29.2523 42.3117C29.2683 41.6551 29.1511 41.0021 28.9078 40.392C28.6645 39.7819 28.3001 39.2275 27.8365 38.7621C27.373 38.2967 26.82 37.9301 26.2109 37.6844C25.6018 37.4387 24.9492 37.3189 24.2925 37.3323C24.8403 35.6295 25.8117 34.0938 27.1155 32.8692C28.4877 31.4838 30.9056 30.3533 33.2776 29.5038ZM24.1291 39.2601C24.5536 39.245 24.9767 39.3146 25.3739 39.465C25.7711 39.6153 26.1343 39.8434 26.4424 40.1357C27.9715 41.6648 27.4553 44.6708 25.2858 46.8337C24.2854 47.8682 22.9801 48.5552 21.561 48.7941C21.0361 48.9021 20.4931 48.8843 19.9764 48.7424C19.4597 48.6004 18.9838 48.3382 18.5877 47.9773C17.0586 46.4482 17.5749 43.4422 19.7444 41.2793C20.8879 40.0693 22.4534 39.3462 24.1161 39.2601H24.1291ZM19.4503 57.1519C19.2898 57.3365 19.0925 57.4854 18.871 57.589C18.6495 57.6926 18.4087 57.7488 18.1642 57.7537C17.9197 57.7587 17.6769 57.7123 17.4514 57.6177C17.2259 57.5231 17.0227 57.3824 16.8549 57.2045C16.6871 57.0266 16.5584 56.8155 16.4771 56.5849C16.3958 56.3542 16.3637 56.1091 16.3829 55.8653C16.4021 55.6215 16.4722 55.3844 16.5885 55.1693C16.7049 54.9543 16.865 54.7659 17.0586 54.6165C17.2318 54.4307 17.326 54.1849 17.3216 53.931C17.3171 53.677 17.2142 53.4348 17.0346 53.2552C16.855 53.0756 16.6127 52.9727 16.3588 52.9682C16.1049 52.9637 15.8591 53.058 15.6733 53.2312C15.3459 53.596 14.8879 53.8172 14.3986 53.8465C13.9092 53.8759 13.4281 53.7111 13.0594 53.388C12.7379 53.0186 12.5742 52.5378 12.6035 52.049C12.6329 51.5602 12.8529 51.1024 13.2163 50.7741C13.3894 50.5883 13.4837 50.3425 13.4792 50.0886C13.4747 49.8347 13.3718 49.5924 13.1922 49.4128C13.0126 49.2332 12.7704 49.1303 12.5164 49.1259C12.2625 49.1214 12.0167 49.2156 11.8309 49.3888C11.4712 49.7741 10.9781 50.0078 10.4521 50.0422C10.224 50.058 9.9952 50.0248 9.78104 49.9448C9.56687 49.8648 9.37234 49.7398 9.21051 49.5783C8.8964 49.223 8.73019 48.7611 8.74599 48.2871C8.76178 47.8132 8.95839 47.3633 9.29546 47.0298C11.5 45.6034 13.8015 44.3325 16.183 43.2266C15.3596 45.5007 15.6471 47.8662 17.1566 49.3822C17.6424 49.8564 18.2182 50.2284 18.8501 50.4765C19.4819 50.7245 20.1571 50.8435 20.8357 50.8264C21.155 50.825 21.4738 50.801 21.7897 50.7545C22.1997 50.6944 22.6041 50.6004 22.9986 50.4735C21.9485 52.7677 20.7637 54.9977 19.4503 57.1519Z" fill="#3A3A3A"/>
<path id="Vector_2" d="M16.3662 17.8723C16.1443 17.7373 15.878 17.6959 15.6256 17.7572C15.3732 17.8184 15.1554 17.9773 15.0201 18.199C12.5548 22.2329 11.3131 26.8955 11.4456 31.6212C11.4524 31.8766 11.5587 32.1193 11.7418 32.2975C11.9249 32.4757 12.1703 32.5754 12.4258 32.5753C12.5546 32.5719 12.6814 32.5432 12.799 32.4907C12.9166 32.4383 13.0228 32.3632 13.1114 32.2698C13.2 32.1763 13.2693 32.0663 13.3154 31.9461C13.3614 31.8258 13.3834 31.6977 13.3799 31.5689C13.2512 27.2227 14.3862 22.9325 16.6472 19.2184C16.7864 19.0021 16.835 18.7397 16.7824 18.4878C16.7298 18.236 16.5803 18.0149 16.3662 17.8723Z" fill="#3A3A3A"/>
<path id="Vector_3" d="M51.8753 46.9125C49.5942 49.2047 46.843 50.9749 43.8116 52.101C43.5939 52.2061 43.4226 52.3878 43.3308 52.6114C43.239 52.8351 43.233 53.0847 43.3141 53.3124C43.3951 53.5402 43.5574 53.7299 43.7699 53.8453C43.9823 53.9606 44.2299 53.9933 44.465 53.9372C47.7618 52.714 50.7538 50.7899 53.2345 48.2978C53.4077 48.112 53.5019 47.8663 53.4975 47.6123C53.493 47.3584 53.3901 47.1161 53.2105 46.9365C53.0309 46.7569 52.7886 46.654 52.5347 46.6496C52.2808 46.6451 52.035 46.7393 51.8492 46.9125H51.8753Z" fill="#3A3A3A"/>
<path id="Vector_4" d="M49.0658 10.5078C48.9623 10.4265 48.8436 10.3669 48.7166 10.3325C48.5896 10.2981 48.457 10.2896 48.3266 10.3075C48.1963 10.3254 48.0709 10.3694 47.9579 10.4368C47.8449 10.5042 47.7467 10.5937 47.669 10.6999C47.5913 10.8061 47.5358 10.9268 47.5058 11.0549C47.4758 11.183 47.4719 11.3158 47.4943 11.4455C47.5167 11.5751 47.565 11.6989 47.6363 11.8095C47.7075 11.9201 47.8003 12.0152 47.9091 12.0892C48.8531 12.7822 49.7422 13.5468 50.5687 14.3763C52.5915 16.3929 54.2106 18.7772 55.339 21.4011C55.3901 21.5195 55.464 21.6267 55.5565 21.7166C55.649 21.8064 55.7583 21.8772 55.8781 21.9248C55.9979 21.9725 56.126 21.996 56.2549 21.9942C56.3839 21.9923 56.5112 21.9651 56.6296 21.914C56.7481 21.863 56.8553 21.7891 56.9451 21.6966C57.035 21.6041 57.1058 21.4948 57.1534 21.375C57.201 21.2551 57.2246 21.1271 57.2228 20.9981C57.2209 20.8692 57.1937 20.7419 57.1426 20.6234C55.9145 17.7723 54.1535 15.1818 51.9541 12.991C51.0567 12.0901 50.091 11.2599 49.0658 10.5078Z" fill="#3A3A3A"/>
<path id="Vector_5" d="M45.2822 6.02516C48.8728 7.44194 52.1159 9.61586 54.7907 12.3989C57.4655 15.1819 59.5091 18.5087 60.7824 22.1527C60.8253 22.2741 60.8917 22.3859 60.9778 22.4817C61.0639 22.5774 61.1681 22.6553 61.2843 22.7108C61.4005 22.7663 61.5265 22.7984 61.6551 22.8053C61.7837 22.8121 61.9124 22.7935 62.0338 22.7506C62.1552 22.7077 62.267 22.6413 62.3628 22.5552C62.4585 22.4691 62.5364 22.3649 62.5919 22.2487C62.6474 22.1325 62.6795 22.0065 62.6864 21.8779C62.6932 21.7493 62.6746 21.6206 62.6317 21.4992C61.264 17.5901 59.0699 14.0216 56.1989 11.0367C53.328 8.05183 49.8475 5.72068 45.9945 4.20199C45.7544 4.11435 45.4895 4.12398 45.2564 4.22883C45.0232 4.33368 44.8403 4.52545 44.7465 4.76325C44.6528 5.00106 44.6556 5.26608 44.7545 5.50181C44.8533 5.73754 45.0403 5.92534 45.2757 6.02516H45.2822Z" fill="#3A3A3A"/>
<path id="Vector_6" d="M8.84465 39.8613C8.99756 39.8616 9.14842 39.8261 9.28517 39.7577C9.42192 39.6893 9.54076 39.5898 9.6322 39.4673C9.72364 39.3447 9.78514 39.2025 9.81179 39.0519C9.83843 38.9013 9.82948 38.7466 9.78564 38.6001C8.12298 32.984 8.34319 26.9782 10.4127 21.4989C12.4821 16.0197 16.2872 11.3679 21.2474 8.25317C21.4544 8.10952 21.598 7.89172 21.6487 7.64495C21.6993 7.39819 21.653 7.1414 21.5193 6.92788C21.3856 6.71436 21.1749 6.5605 20.9308 6.49821C20.6867 6.43593 20.428 6.47 20.2084 6.59337C14.8852 9.93468 10.8011 14.9257 8.57946 20.8049C6.35778 26.6842 6.12045 33.1288 7.90366 39.1555C7.96305 39.3591 8.08686 39.538 8.25653 39.6653C8.4262 39.7925 8.63257 39.8613 8.84465 39.8613Z" fill="#3A3A3A"/>
<path id="Vector_7" d="M59.5666 44.8212C59.4572 44.7528 59.3355 44.7066 59.2082 44.6853C59.081 44.664 58.9508 44.6681 58.8251 44.6972C58.6995 44.7264 58.5808 44.78 58.4759 44.8551C58.371 44.9302 58.282 45.0253 58.2139 45.1349C55.1109 50.1027 50.4679 53.9189 44.9934 56.0014C39.5188 58.0838 33.5133 58.3181 27.8931 56.6685C27.7695 56.6321 27.64 56.6203 27.5119 56.6339C27.3838 56.6475 27.2596 56.6862 27.1464 56.7478C27.0332 56.8093 26.9333 56.8926 26.8523 56.9928C26.7713 57.093 26.7109 57.2082 26.6744 57.3318C26.6379 57.4554 26.6262 57.5849 26.6398 57.713C26.6533 57.8412 26.692 57.9654 26.7536 58.0785C26.8152 58.1917 26.8985 58.2916 26.9987 58.3726C27.0989 58.4536 27.2141 58.514 27.3377 58.5505C33.3694 60.3223 39.8152 60.0716 45.6911 57.8369C51.567 55.6021 56.5503 51.5061 59.8803 46.1739C59.9487 46.0645 59.9949 45.9427 60.0162 45.8155C60.0374 45.6883 60.0334 45.5581 60.0042 45.4324C59.9751 45.3068 59.9214 45.1881 59.8463 45.0832C59.7712 44.9783 59.6762 44.8893 59.5666 44.8212Z" fill="#3A3A3A"/>
</g>
</svg>
