<svg width="65" height="64" viewBox="0 0 65 64" fill="none" xmlns="http://www.w3.org/2000/svg">
<g id="19794497111646045134">
<path id="Vector" d="M54.5 11.1948H48.0713C48.0626 10.1401 47.6378 9.13152 46.8892 8.3885C46.1406 7.64549 45.1289 7.22819 44.0742 7.22743C43.0194 7.22667 42.0071 7.64251 41.2574 8.38444C40.5078 9.12638 40.0815 10.1344 40.0713 11.189C40.0775 11.1942 24.9226 11.1949 24.9287 11.189C24.9283 10.6637 24.8245 10.1436 24.6231 9.65846C24.4217 9.17331 24.1268 8.73257 23.7551 8.3614C23.3834 7.99024 22.9422 7.69592 22.4567 7.49526C21.9713 7.2946 21.4511 7.19151 20.9258 7.1919C20.4005 7.19228 19.8804 7.29612 19.3953 7.4975C18.9101 7.69887 18.4694 7.99383 18.0982 8.36553C17.7271 8.73724 17.4327 9.17841 17.2321 9.66386C17.0314 10.1493 16.9283 10.6695 16.9287 11.1948H10.5C8.90924 11.1966 7.38412 11.8293 6.25928 12.9541C5.13444 14.0789 4.50174 15.6041 4.5 17.1948V50.8081C4.50174 52.3989 5.13444 53.924 6.25928 55.0488C7.38412 56.1737 8.90924 56.8064 10.5 56.8081H54.5C56.0908 56.8064 57.6159 56.1737 58.7407 55.0488C59.8656 53.924 60.4983 52.3989 60.5 50.8081V17.1948C60.4983 15.6041 59.8656 14.0789 58.7407 12.9541C57.6159 11.8293 56.0908 11.1966 54.5 11.1948ZM10.5 13.1948H16.9287C16.9299 14.2551 17.3518 15.2715 18.1018 16.0209C18.8517 16.7703 19.8685 17.1915 20.9287 17.1919C21.1908 17.1868 21.4405 17.079 21.6239 16.8917C21.8074 16.7044 21.9099 16.4526 21.9095 16.1904C21.9091 15.9282 21.8058 15.6767 21.6218 15.49C21.4378 15.3032 21.1878 15.1962 20.9257 15.1919C20.3962 15.1913 19.8886 14.9807 19.5142 14.6063C19.1398 14.2319 18.9293 13.7243 18.9287 13.1948V11.189C18.9291 10.6586 19.1402 10.15 19.5155 9.77521C19.8909 9.40041 20.3997 9.19007 20.9302 9.19046C21.4606 9.19085 21.9692 9.40194 22.344 9.77728C22.7188 10.1526 22.9291 10.6615 22.9287 11.1919H21.4551C21.1933 11.1972 20.9441 11.3048 20.7608 11.4918C20.5775 11.6788 20.4749 11.9302 20.4749 12.192C20.4749 12.4538 20.5776 12.7051 20.7609 12.8921C20.9441 13.0791 21.1934 13.1867 21.4552 13.1919H40.0713C40.0717 14.2522 40.4928 15.2689 41.2423 16.0189C41.9917 16.7689 43.0081 17.1908 44.0684 17.1919C44.3305 17.1872 44.5803 17.0798 44.764 16.8928C44.9477 16.7057 45.0506 16.4541 45.0506 16.1919C45.0506 15.9297 44.9476 15.6781 44.7639 15.491C44.5802 15.304 44.3304 15.1966 44.0683 15.1919C43.5388 15.1914 43.0312 14.9808 42.6568 14.6064C42.2824 14.232 42.0718 13.7243 42.0713 13.1948V11.189C42.0721 10.6586 42.2835 10.1502 42.6591 9.77564C43.0348 9.40112 43.5438 9.19115 44.0742 9.19193C44.6047 9.1927 45.1131 9.40416 45.4876 9.77978C45.8621 10.1554 46.0721 10.6644 46.0713 11.1949H44.5996C44.3377 11.1998 44.0882 11.3074 43.9047 11.4944C43.7212 11.6814 43.6184 11.9329 43.6184 12.1949C43.6184 12.4569 43.7212 12.7084 43.9047 12.8954C44.0882 13.0824 44.3377 13.1899 44.5997 13.1949H54.5C55.5605 13.196 56.5773 13.6178 57.3272 14.3677C58.0771 15.1176 58.4989 16.1343 58.5 17.1949V22.7632H6.5V17.1948C6.50113 16.1343 6.92292 15.1175 7.67282 14.3676C8.42272 13.6177 9.43948 13.1959 10.5 13.1948ZM54.5 54.8081H10.5C9.43948 54.807 8.42272 54.3852 7.67282 53.6353C6.92292 52.8854 6.50113 51.8686 6.5 50.8081V24.7632H58.5V50.8081C58.4989 51.8686 58.0771 52.8854 57.3272 53.6353C56.5773 54.3852 55.5605 54.807 54.5 54.8081Z" fill="#3A3A3A"/>
<path id="Vector_2" d="M48.5001 27.7856C47.7103 27.7945 46.9558 28.1145 46.4005 28.6762C45.8451 29.2378 45.5337 29.9958 45.5337 30.7857C45.5337 31.5755 45.8452 32.3335 46.4006 32.8952C46.9559 33.4568 47.7104 33.7768 48.5002 33.7856C49.29 33.7767 50.0444 33.4567 50.5997 32.8951C51.1551 32.3334 51.4666 31.5754 51.4665 30.7856C51.4665 29.9957 51.155 29.2378 50.5997 28.6761C50.0443 28.1145 49.2899 27.7945 48.5001 27.7856ZM48.5001 31.7856C48.2382 31.7805 47.9888 31.6729 47.8055 31.4859C47.6221 31.299 47.5194 31.0475 47.5194 30.7856C47.5194 30.5237 47.6221 30.2723 47.8055 30.0853C47.9889 29.8983 48.2383 29.7907 48.5001 29.7856C48.762 29.7908 49.0114 29.8984 49.1947 30.0854C49.3781 30.2723 49.4808 30.5238 49.4808 30.7857C49.4808 31.0476 49.3781 31.299 49.1947 31.486C49.0113 31.673 48.7619 31.7805 48.5001 31.7856Z" fill="#3A3A3A"/>
<path id="Vector_3" d="M48.5001 36.7856C47.7103 36.7945 46.9558 37.1145 46.4005 37.6762C45.8451 38.2378 45.5337 38.9958 45.5337 39.7857C45.5337 40.5755 45.8452 41.3335 46.4006 41.8952C46.9559 42.4568 47.7104 42.7768 48.5002 42.7856C49.29 42.7767 50.0444 42.4567 50.5997 41.8951C51.1551 41.3334 51.4666 40.5754 51.4665 39.7856C51.4665 38.9957 51.155 38.2378 50.5997 37.6761C50.0443 37.1145 49.2899 36.7945 48.5001 36.7856ZM48.5001 40.7856C48.2382 40.7805 47.9888 40.6729 47.8055 40.4859C47.6221 40.299 47.5194 40.0475 47.5194 39.7856C47.5194 39.5237 47.6221 39.2723 47.8055 39.0853C47.9889 38.8983 48.2383 38.7907 48.5001 38.7856C48.762 38.7908 49.0114 38.8984 49.1947 39.0854C49.3781 39.2723 49.4808 39.5238 49.4808 39.7857C49.4808 40.0476 49.3781 40.299 49.1947 40.486C49.0113 40.673 48.7619 40.7805 48.5001 40.7856Z" fill="#3A3A3A"/>
<path id="Vector_4" d="M48.5001 45.7856C47.7103 45.7945 46.9558 46.1145 46.4005 46.6762C45.8451 47.2378 45.5337 47.9958 45.5337 48.7857C45.5337 49.5755 45.8452 50.3335 46.4006 50.8952C46.9559 51.4568 47.7104 51.7768 48.5002 51.7856C49.29 51.7767 50.0444 51.4567 50.5997 50.8951C51.1551 50.3334 51.4666 49.5754 51.4665 48.7856C51.4665 47.9957 51.155 47.2378 50.5997 46.6761C50.0443 46.1145 49.2899 45.7945 48.5001 45.7856ZM48.5001 49.7856C48.2382 49.7805 47.9888 49.6729 47.8055 49.4859C47.6221 49.299 47.5194 49.0475 47.5194 48.7856C47.5194 48.5237 47.6221 48.2723 47.8055 48.0853C47.9889 47.8983 48.2383 47.7907 48.5001 47.7856C48.762 47.7908 49.0114 47.8984 49.1947 48.0854C49.3781 48.2723 49.4808 48.5238 49.4808 48.7857C49.4808 49.0476 49.3781 49.299 49.1947 49.486C49.0113 49.673 48.7619 49.7805 48.5001 49.7856Z" fill="#3A3A3A"/>
<path id="Vector_5" d="M32.5001 27.7856C31.7103 27.7945 30.9558 28.1145 30.4005 28.6762C29.8451 29.2378 29.5337 29.9958 29.5337 30.7857C29.5337 31.5755 29.8452 32.3335 30.4006 32.8952C30.9559 33.4568 31.7104 33.7768 32.5002 33.7856C33.29 33.7767 34.0444 33.4567 34.5997 32.8951C35.1551 32.3334 35.4666 31.5754 35.4665 30.7856C35.4665 29.9957 35.155 29.2378 34.5997 28.6761C34.0443 28.1145 33.2899 27.7945 32.5001 27.7856ZM32.5001 31.7856C32.2382 31.7805 31.9888 31.6729 31.8055 31.4859C31.6221 31.299 31.5194 31.0475 31.5194 30.7856C31.5194 30.5237 31.6221 30.2723 31.8055 30.0853C31.9889 29.8983 32.2383 29.7907 32.5001 29.7856C32.762 29.7908 33.0114 29.8984 33.1947 30.0854C33.3781 30.2723 33.4808 30.5238 33.4808 30.7857C33.4808 31.0476 33.3781 31.299 33.1947 31.486C33.0113 31.673 32.7619 31.7805 32.5001 31.7856Z" fill="#3A3A3A"/>
<path id="Vector_6" d="M32.5001 36.7856C31.7103 36.7945 30.9558 37.1145 30.4005 37.6762C29.8451 38.2378 29.5337 38.9958 29.5337 39.7857C29.5337 40.5755 29.8452 41.3335 30.4006 41.8952C30.9559 42.4568 31.7104 42.7768 32.5002 42.7856C33.29 42.7767 34.0444 42.4567 34.5997 41.8951C35.1551 41.3334 35.4666 40.5754 35.4665 39.7856C35.4665 38.9957 35.155 38.2378 34.5997 37.6761C34.0443 37.1145 33.2899 36.7945 32.5001 36.7856ZM32.5001 40.7856C32.2382 40.7805 31.9888 40.6729 31.8055 40.4859C31.6221 40.299 31.5194 40.0475 31.5194 39.7856C31.5194 39.5237 31.6221 39.2723 31.8055 39.0853C31.9889 38.8983 32.2383 38.7907 32.5001 38.7856C32.762 38.7908 33.0114 38.8984 33.1947 39.0854C33.3781 39.2723 33.4808 39.5238 33.4808 39.7857C33.4808 40.0476 33.3781 40.299 33.1947 40.486C33.0113 40.673 32.7619 40.7805 32.5001 40.7856Z" fill="#3A3A3A"/>
<path id="Vector_7" d="M32.5001 45.7856C31.7103 45.7945 30.9558 46.1145 30.4005 46.6762C29.8451 47.2378 29.5337 47.9958 29.5337 48.7857C29.5337 49.5755 29.8452 50.3335 30.4006 50.8952C30.9559 51.4568 31.7104 51.7768 32.5002 51.7856C33.29 51.7767 34.0444 51.4567 34.5997 50.8951C35.1551 50.3334 35.4666 49.5754 35.4665 48.7856C35.4665 47.9957 35.155 47.2378 34.5997 46.6761C34.0443 46.1145 33.2899 45.7945 32.5001 45.7856ZM32.5001 49.7856C32.2382 49.7805 31.9888 49.6729 31.8055 49.4859C31.6221 49.299 31.5194 49.0475 31.5194 48.7856C31.5194 48.5237 31.6221 48.2723 31.8055 48.0853C31.9889 47.8983 32.2383 47.7907 32.5001 47.7856C32.762 47.7908 33.0114 47.8984 33.1947 48.0854C33.3781 48.2723 33.4808 48.5238 33.4808 48.7857C33.4808 49.0476 33.3781 49.299 33.1947 49.486C33.0113 49.673 32.7619 49.7805 32.5001 49.7856Z" fill="#3A3A3A"/>
<path id="Vector_8" d="M16.5001 27.7856C15.7103 27.7945 14.9558 28.1145 14.4005 28.6762C13.8451 29.2378 13.5337 29.9958 13.5337 30.7857C13.5337 31.5755 13.8452 32.3335 14.4006 32.8952C14.9559 33.4568 15.7104 33.7768 16.5002 33.7856C17.29 33.7767 18.0444 33.4567 18.5997 32.8951C19.1551 32.3334 19.4666 31.5754 19.4665 30.7856C19.4665 29.9957 19.155 29.2378 18.5997 28.6761C18.0443 28.1145 17.2899 27.7945 16.5001 27.7856ZM16.5001 31.7856C16.2382 31.7805 15.9888 31.6729 15.8055 31.4859C15.6221 31.299 15.5194 31.0475 15.5194 30.7856C15.5194 30.5237 15.6221 30.2723 15.8055 30.0853C15.9889 29.8983 16.2383 29.7907 16.5001 29.7856C16.762 29.7908 17.0114 29.8984 17.1947 30.0854C17.3781 30.2723 17.4808 30.5238 17.4808 30.7857C17.4808 31.0476 17.3781 31.299 17.1947 31.486C17.0113 31.673 16.7619 31.7805 16.5001 31.7856Z" fill="#3A3A3A"/>
<path id="Vector_9" d="M16.5001 36.7856C15.7103 36.7945 14.9558 37.1145 14.4005 37.6762C13.8451 38.2378 13.5337 38.9958 13.5337 39.7857C13.5337 40.5755 13.8452 41.3335 14.4006 41.8952C14.9559 42.4568 15.7104 42.7768 16.5002 42.7856C17.29 42.7767 18.0444 42.4567 18.5997 41.8951C19.1551 41.3334 19.4666 40.5754 19.4665 39.7856C19.4665 38.9957 19.155 38.2378 18.5997 37.6761C18.0443 37.1145 17.2899 36.7945 16.5001 36.7856ZM16.5001 40.7856C16.2382 40.7805 15.9888 40.6729 15.8055 40.4859C15.6221 40.299 15.5194 40.0475 15.5194 39.7856C15.5194 39.5237 15.6221 39.2723 15.8055 39.0853C15.9889 38.8983 16.2383 38.7907 16.5001 38.7856C16.762 38.7908 17.0114 38.8984 17.1947 39.0854C17.3781 39.2723 17.4808 39.5238 17.4808 39.7857C17.4808 40.0476 17.3781 40.299 17.1947 40.486C17.0113 40.673 16.7619 40.7805 16.5001 40.7856Z" fill="#3A3A3A"/>
<path id="Vector_10" d="M16.5001 45.7856C15.7103 45.7945 14.9558 46.1145 14.4005 46.6762C13.8451 47.2378 13.5337 47.9958 13.5337 48.7857C13.5337 49.5755 13.8452 50.3335 14.4006 50.8952C14.9559 51.4568 15.7104 51.7768 16.5002 51.7856C17.29 51.7767 18.0444 51.4567 18.5997 50.8951C19.1551 50.3334 19.4666 49.5754 19.4665 48.7856C19.4665 47.9957 19.155 47.2378 18.5997 46.6761C18.0443 46.1145 17.2899 45.7945 16.5001 45.7856ZM16.5001 49.7856C16.2382 49.7805 15.9888 49.6729 15.8055 49.4859C15.6221 49.299 15.5194 49.0475 15.5194 48.7856C15.5194 48.5237 15.6221 48.2723 15.8055 48.0853C15.9889 47.8983 16.2383 47.7907 16.5001 47.7856C16.762 47.7908 17.0114 47.8984 17.1947 48.0854C17.3781 48.2723 17.4808 48.5238 17.4808 48.7857C17.4808 49.0476 17.3781 49.299 17.1947 49.486C17.0113 49.673 16.7619 49.7805 16.5001 49.7856Z" fill="#3A3A3A"/>
</g>
</svg>
