<svg width="66" height="66" viewBox="0 0 66 66" fill="none" xmlns="http://www.w3.org/2000/svg">
<g id="7063939951638295540">
<path id="Vector" d="M45.375 1.03125C34.5714 1.03125 25.7812 9.82137 25.7812 20.625C25.7794 22.7107 26.1124 24.7833 26.7674 26.7635C24.7857 26.1094 22.7119 25.7778 20.625 25.7812C9.82137 25.7812 1.03125 34.5714 1.03125 45.375C1.03125 56.1786 9.82137 64.9688 20.625 64.9688C31.4286 64.9688 40.2188 56.1786 40.2188 45.375C40.2222 43.2881 39.8906 41.2143 39.2365 39.2326C41.2167 39.8876 43.2893 40.2206 45.375 40.2188C56.1786 40.2188 64.9688 31.4286 64.9688 20.625C64.9688 9.82137 56.1786 1.03125 45.375 1.03125ZM20.625 62.9062C10.9583 62.9062 3.09375 55.0417 3.09375 45.375C3.09375 35.7083 10.9583 27.8438 20.625 27.8438C23.1213 27.8381 25.5894 28.3701 27.8618 29.4035C29.763 33.1752 32.8248 36.237 36.5965 38.1382C37.6299 40.4106 38.1619 42.8787 38.1562 45.375C38.1562 55.0417 30.2917 62.9062 20.625 62.9062ZM45.375 38.1562C35.7083 38.1562 27.8438 30.2917 27.8438 20.625C27.8438 10.9583 35.7083 3.09375 45.375 3.09375C55.0417 3.09375 62.9062 10.9583 62.9062 20.625C62.9062 30.2917 55.0417 38.1562 45.375 38.1562Z" fill="#3A3A3A"/>
<path id="Vector_2" d="M45.375 6.1875C42.5196 6.1875 39.7281 7.03425 37.3539 8.62066C34.9797 10.2071 33.1293 12.4619 32.0365 15.0999C30.9438 17.7381 30.6579 20.641 31.2149 23.4416C31.772 26.2422 33.147 28.8147 35.1661 30.8339C37.1853 32.8529 39.7577 34.228 42.5584 34.7851C45.359 35.3422 48.2618 35.0563 50.9 33.9636C53.5381 32.8708 55.7929 31.0203 57.3794 28.6461C58.9657 26.2719 59.8125 23.4805 59.8125 20.625C59.8082 16.7973 58.2858 13.1274 55.5792 10.4208C52.8725 7.71414 49.2027 6.1917 45.375 6.1875ZM45.375 33C42.9274 33 40.5348 32.2743 38.4997 30.9144C36.4647 29.5546 34.8786 27.6219 33.942 25.3608C33.0054 23.0995 32.7602 20.6113 33.2378 18.2107C33.7153 15.8102 34.8939 13.6053 36.6246 11.8746C38.3552 10.1439 40.5602 8.96527 42.9607 8.48778C45.3613 8.01029 47.8494 8.25536 50.1107 9.192C52.3719 10.1286 54.3047 11.7148 55.6644 13.7498C57.0242 15.7848 57.75 18.1775 57.75 20.625C57.7461 23.9058 56.441 27.0512 54.1211 29.3712C51.8012 31.6911 48.6558 32.9961 45.375 33Z" fill="#3A3A3A"/>
<path id="Vector_3" d="M20.625 30.9375C17.7696 30.9375 14.9781 31.7843 12.604 33.3706C10.2297 34.9571 8.37924 37.2119 7.28649 39.8499C6.19375 42.4881 5.90785 45.391 6.46492 48.1916C7.02199 50.9922 8.39703 53.5647 10.4162 55.5839C12.4353 57.6029 15.0078 58.978 17.8084 59.5351C20.609 60.0922 23.5119 59.8063 26.15 58.7136C28.7881 57.6208 31.0429 55.7703 32.6294 53.3961C34.2157 51.0219 35.0625 48.2305 35.0625 45.375C35.0582 41.5473 33.5359 37.8774 30.8292 35.1708C28.1226 32.4641 24.4527 30.9418 20.625 30.9375ZM20.625 57.75C18.1775 57.75 15.7848 57.0243 13.7498 55.6644C11.7148 54.3046 10.1286 52.3719 9.19199 50.1108C8.25536 47.8495 8.0103 45.3613 8.48779 42.9607C8.96527 40.5602 10.1439 38.3553 11.8746 36.6246C13.6053 34.8939 15.8102 33.7153 18.2107 33.2378C20.6113 32.7602 23.0995 33.0054 25.3608 33.942C27.6219 34.8787 29.5547 36.4647 30.9144 38.4998C32.2743 40.5348 33 42.9275 33 45.375C32.9961 48.6558 31.6911 51.8012 29.3712 54.1212C27.0512 56.4411 23.9058 57.7461 20.625 57.75Z" fill="#3A3A3A"/>
<path id="Vector_4" d="M50.5312 25.7812C50.5312 26.0548 50.4226 26.3171 50.2292 26.5105C50.0359 26.7038 49.7735 26.8125 49.5 26.8125H45.375C44.4607 26.8113 43.5726 26.5071 42.8497 25.9473C42.1268 25.3874 41.61 24.6037 41.3802 23.7188H41.25C40.9765 23.7188 40.7141 23.6101 40.5208 23.4167C40.3274 23.2234 40.2188 22.961 40.2188 22.6875C40.2188 22.414 40.3274 22.1516 40.5208 21.9583C40.7141 21.7649 40.9765 21.6562 41.25 21.6562V20.625C40.9765 20.625 40.7141 20.5163 40.5208 20.323C40.3274 20.1296 40.2188 19.8673 40.2188 19.5938C40.2188 19.3202 40.3274 19.0579 40.5208 18.8645C40.7141 18.6712 40.9765 18.5625 41.25 18.5625H41.3802C41.61 17.6776 42.1268 16.8938 42.8497 16.334C43.5726 15.7741 44.4607 15.4699 45.375 15.4688H49.5C49.7735 15.4688 50.0359 15.5774 50.2292 15.7708C50.4226 15.9641 50.5312 16.2265 50.5312 16.5C50.5312 16.7735 50.4226 17.0359 50.2292 17.2292C50.0359 17.4226 49.7735 17.5312 49.5 17.5312H45.375C45.0135 17.5318 44.6585 17.6273 44.3456 17.8083C44.0327 17.9893 43.7728 18.2494 43.5922 18.5625H47.4375C47.711 18.5625 47.9734 18.6712 48.1667 18.8645C48.3601 19.0579 48.4688 19.3202 48.4688 19.5938C48.4688 19.8673 48.3601 20.1296 48.1667 20.323C47.9734 20.5163 47.711 20.625 47.4375 20.625H43.3125V21.6562H47.4375C47.711 21.6562 47.9734 21.7649 48.1667 21.9583C48.3601 22.1516 48.4688 22.414 48.4688 22.6875C48.4688 22.961 48.3601 23.2234 48.1667 23.4167C47.9734 23.6101 47.711 23.7188 47.4375 23.7188H43.5922C43.7728 24.0319 44.0327 24.292 44.3456 24.473C44.6585 24.654 45.0135 24.7495 45.375 24.75H49.5C49.7735 24.75 50.0359 24.8587 50.2292 25.052C50.4226 25.2454 50.5312 25.5077 50.5312 25.7812Z" fill="#3A3A3A"/>
<path id="Vector_5" d="M24.75 47.4373C24.749 48.2576 24.4226 49.0438 23.8426 49.6237C23.2627 50.2037 22.4765 50.5301 21.6562 50.5311C21.6562 50.8046 21.5476 51.067 21.3542 51.2603C21.1609 51.4537 20.8985 51.5623 20.625 51.5623C20.3515 51.5623 20.0891 51.4537 19.8958 51.2603C19.7024 51.067 19.5938 50.8046 19.5938 50.5311H18.5625C18.289 50.5311 18.0266 50.4224 17.8333 50.2291C17.6399 50.0357 17.5312 49.7734 17.5312 49.4998C17.5312 49.2263 17.6399 48.964 17.8333 48.7706C18.0266 48.5773 18.289 48.4686 18.5625 48.4686H21.6562C21.9298 48.4686 22.1921 48.3599 22.3855 48.1666C22.5788 47.9732 22.6875 47.7109 22.6875 47.4373C22.6875 47.1638 22.5788 46.9015 22.3855 46.7081C22.1921 46.5148 21.9298 46.4061 21.6562 46.4061H20.625C19.8956 46.4054 19.19 46.1471 18.6326 45.6769C18.0752 45.2065 17.7019 44.5544 17.5786 43.8356C17.4552 43.1168 17.5898 42.3775 17.9584 41.7482C18.3272 41.119 18.9064 40.6402 19.5938 40.3965V40.3475C19.5956 40.0863 19.6962 39.8357 19.8757 39.646C20.0551 39.4562 20.2998 39.3416 20.5604 39.3253C20.8209 39.3089 21.0781 39.392 21.2797 39.5578C21.4815 39.7236 21.6128 39.9597 21.6472 40.2186H22.6875C22.961 40.2186 23.2234 40.3273 23.4167 40.5206C23.6101 40.714 23.7188 40.9763 23.7188 41.2498C23.7188 41.5234 23.6101 41.7857 23.4167 41.9791C23.2234 42.1724 22.961 42.2811 22.6875 42.2811H20.625C20.3515 42.2811 20.0891 42.3898 19.8958 42.5831C19.7024 42.7765 19.5938 43.0388 19.5938 43.3123C19.5938 43.5859 19.7024 43.8482 19.8958 44.0416C20.0891 44.2349 20.3515 44.3436 20.625 44.3436H21.6562C22.0627 44.3431 22.4653 44.4227 22.8408 44.5779C23.2164 44.7333 23.5577 44.9612 23.8451 45.2485C24.1324 45.5358 24.3603 45.8772 24.5156 46.2528C24.6709 46.6283 24.7505 47.0309 24.75 47.4373Z" fill="#3A3A3A"/>
<path id="Vector_6" d="M57.014 39.1042C56.8842 39.0654 56.7481 39.0526 56.6134 39.0664C56.4787 39.0803 56.348 39.1206 56.2289 39.1849C56.1096 39.2492 56.0043 39.3365 55.9188 39.4415C55.8334 39.5466 55.7694 39.6674 55.7308 39.7972C54.6061 43.5432 52.5746 46.9538 49.8164 49.7268C47.0582 52.4999 43.6584 54.5495 39.9185 55.6942C39.7882 55.733 39.6667 55.797 39.5613 55.8829C39.4558 55.9689 39.3684 56.0747 39.304 56.1944C39.2397 56.3142 39.1996 56.4456 39.1862 56.5809C39.1728 56.7163 39.1863 56.8529 39.2259 56.983C39.2654 57.113 39.3304 57.2341 39.417 57.3389C39.5035 57.4438 39.61 57.5306 39.7302 57.5941C39.8504 57.6578 39.9819 57.697 40.1174 57.7095C40.2527 57.722 40.3894 57.7077 40.5192 57.6672C44.5846 56.4234 48.2804 54.1956 51.2786 51.1813C54.277 48.1671 56.485 44.4595 57.7072 40.3874C57.7458 40.2576 57.7587 40.1215 57.7448 39.9868C57.731 39.8521 57.6908 39.7214 57.6263 39.6023C57.562 39.483 57.4747 39.3777 57.3697 39.2923C57.2646 39.2068 57.1438 39.1429 57.014 39.1042Z" fill="#3A3A3A"/>
<path id="Vector_7" d="M8.77284 27.8113C8.90399 27.8452 9.04054 27.8528 9.17467 27.8338C9.30879 27.8149 9.43787 27.7698 9.5545 27.7008C9.67114 27.632 9.77303 27.5407 9.85437 27.4324C9.9357 27.324 9.99488 27.2008 10.0285 27.0696C11.0853 22.9645 13.2238 19.2181 16.2211 16.2208C19.2185 13.2233 22.9649 11.0849 27.0699 10.0281C27.3349 9.95998 27.5619 9.78934 27.701 9.55378C27.8402 9.31822 27.8801 9.03703 27.8119 8.77208C27.7437 8.50713 27.5731 8.2801 27.3375 8.14094C27.102 8.0018 26.8208 7.96193 26.5558 8.0301C22.0937 9.17887 18.0215 11.5034 14.7633 14.7615C11.5054 18.0196 9.18079 22.0918 8.03201 26.5539C7.998 26.6852 7.9902 26.8218 8.00903 26.956C8.02786 27.0902 8.07297 27.2193 8.14178 27.3361C8.21057 27.4529 8.30172 27.555 8.41001 27.6365C8.51829 27.7181 8.64159 27.7775 8.77284 27.8113Z" fill="#3A3A3A"/>
</g>
</svg>
