<svg width="67" height="66" viewBox="0 0 67 66" fill="none" xmlns="http://www.w3.org/2000/svg">
<g id="29464321586787195" clip-path="url(#clip0_135_923)">
<path id="Vector" d="M34.5312 47.4375H32.4688V49.5H34.5312V47.4375Z" fill="#3A3A3A"/>
<path id="Vector_2" d="M30.4062 47.4375H28.3438V49.5H30.4062V47.4375Z" fill="#3A3A3A"/>
<path id="Vector_3" d="M38.6562 47.4375H36.5938V49.5H38.6562V47.4375Z" fill="#3A3A3A"/>
<path id="Vector_4" d="M8.75 4.125H6.6875V6.1875H8.75V4.125Z" fill="#3A3A3A"/>
<path id="Vector_5" d="M12.875 4.125H10.8125V6.1875H12.875V4.125Z" fill="#3A3A3A"/>
<path id="Vector_6" d="M17 4.125H14.9375V6.1875H17V4.125Z" fill="#3A3A3A"/>
<path id="Vector_7" d="M11.8438 33H20.0938C20.663 33 21.125 33.462 21.125 34.0312C21.125 34.6005 20.663 35.0625 20.0938 35.0625H17C15.2943 35.0625 13.9062 36.4506 13.9062 38.1562C13.9062 39.8619 15.2943 41.25 17 41.25H32.4688C32.7431 41.25 33.006 41.1407 33.1999 40.9458C33.4649 40.6797 39.6875 34.3633 39.6875 28.875C39.6875 23.7084 36.9887 20.625 32.4688 20.625C27.9488 20.625 25.25 23.7084 25.25 28.875C25.25 32.6803 28.2386 36.8785 30.1608 39.1875H17C16.4307 39.1875 15.9688 38.7255 15.9688 38.1562C15.9688 37.587 16.4307 37.125 17 37.125H20.0938C21.7994 37.125 23.1875 35.7369 23.1875 34.0312C23.1875 32.3256 21.7994 30.9375 20.0938 30.9375H14.1517C16.0739 28.6285 19.0625 24.4303 19.0625 20.625C19.0625 15.4584 16.3637 12.375 11.8438 12.375C7.32378 12.375 4.625 15.4584 4.625 20.625C4.625 26.1133 10.8476 32.4297 11.1126 32.6958C11.3065 32.8907 11.5694 33 11.8438 33ZM32.4688 22.6875C35.7945 22.6875 37.625 24.8851 37.625 28.875C37.625 32.5081 34.0455 36.9301 32.4688 38.7018C30.892 36.9291 27.3125 32.5081 27.3125 28.875C27.3125 24.8851 29.143 22.6875 32.4688 22.6875ZM11.8438 14.4375C15.1695 14.4375 17 16.6351 17 20.625C17 24.2581 13.4205 28.6801 11.8438 30.4518C10.267 28.6801 6.6875 24.2581 6.6875 20.625C6.6875 16.6351 8.51797 14.4375 11.8438 14.4375Z" fill="#3A3A3A"/>
<path id="Vector_8" d="M14.9375 19.5938C14.9375 17.8881 13.5494 16.5 11.8438 16.5C10.1381 16.5 8.75 17.8881 8.75 19.5938C8.75 21.2994 10.1381 22.6875 11.8438 22.6875C13.5494 22.6875 14.9375 21.2994 14.9375 19.5938ZM10.8125 19.5938C10.8125 19.0245 11.2745 18.5625 11.8438 18.5625C12.413 18.5625 12.875 19.0245 12.875 19.5938C12.875 20.163 12.413 20.625 11.8438 20.625C11.2745 20.625 10.8125 20.163 10.8125 19.5938Z" fill="#3A3A3A"/>
<path id="Vector_9" d="M35.5625 27.8438C35.5625 26.1381 34.1744 24.75 32.4688 24.75C30.7631 24.75 29.375 26.1381 29.375 27.8438C29.375 29.5494 30.7631 30.9375 32.4688 30.9375C34.1744 30.9375 35.5625 29.5494 35.5625 27.8438ZM31.4375 27.8438C31.4375 27.2745 31.8995 26.8125 32.4688 26.8125C33.038 26.8125 33.5 27.2745 33.5 27.8438C33.5 28.413 33.038 28.875 32.4688 28.875C31.8995 28.875 31.4375 28.413 31.4375 27.8438Z" fill="#3A3A3A"/>
<path id="Vector_10" d="M61.3438 0H5.65625C2.81309 0 0.5 2.442 0.5 5.28516V48.4688C0.5 51.3119 2.81309 53.625 5.65625 53.625H23.7619L21.4416 59.8125H14.9375C14.3672 59.8125 13.9062 60.2735 13.9062 60.8438C13.9062 63.6869 16.2193 66 19.0625 66H47.9375C50.7807 66 53.0938 63.6869 53.0938 60.8438C53.0938 60.2735 52.6328 59.8125 52.0625 59.8125H45.5584L43.2381 53.625H61.3438C64.1869 53.625 66.5 51.3119 66.5 48.4688V5.28516C66.5 2.442 64.1869 0 61.3438 0ZM5.65625 2.0625H61.3438C63.0494 2.0625 64.4375 3.57947 64.4375 5.28516V8.25H4.625V10.3125H64.4375V43.3125H2.5625V5.28516C2.5625 3.57947 3.95056 2.0625 5.65625 2.0625ZM47.9375 63.9375H19.0625C17.7178 63.9375 16.571 63.0754 16.1451 61.875H22.1562H44.8438H50.8549C50.429 63.0754 49.2822 63.9375 47.9375 63.9375ZM43.3557 59.8125H23.6443L25.9647 53.625H41.0343L43.3557 59.8125ZM61.3438 51.5625H41.75H25.25H5.65625C3.95056 51.5625 2.5625 50.1744 2.5625 48.4688V45.375H64.4375V48.4688C64.4375 50.1744 63.0494 51.5625 61.3438 51.5625Z" fill="#3A3A3A"/>
<path id="Vector_11" d="M42.7812 24.75H50C50.5703 24.75 51.0312 24.289 51.0312 23.7188V19.5938C51.0312 19.0235 50.5703 18.5625 50 18.5625H42.7812C42.211 18.5625 41.75 19.0235 41.75 19.5938V23.7188C41.75 24.289 42.211 24.75 42.7812 24.75ZM43.8125 20.625H48.9688V22.6875H43.8125V20.625Z" fill="#3A3A3A"/>
<path id="Vector_12" d="M54.125 24.75H61.3438C61.914 24.75 62.375 24.289 62.375 23.7188V19.5938C62.375 19.0235 61.914 18.5625 61.3438 18.5625H54.125C53.5547 18.5625 53.0938 19.0235 53.0938 19.5938V23.7188C53.0938 24.289 53.5547 24.75 54.125 24.75ZM55.1562 20.625H60.3125V22.6875H55.1562V20.625Z" fill="#3A3A3A"/>
<path id="Vector_13" d="M62.375 26.8125H41.75V28.875H62.375V26.8125Z" fill="#3A3A3A"/>
<path id="Vector_14" d="M62.375 30.9375H41.75V33H62.375V30.9375Z" fill="#3A3A3A"/>
<path id="Vector_15" d="M62.375 35.0625H41.75V37.125H62.375V35.0625Z" fill="#3A3A3A"/>
<path id="Vector_16" d="M44.8438 13.4062H41.75V15.4688H44.8438V13.4062Z" fill="#3A3A3A"/>
<path id="Vector_17" d="M51.0312 13.4062H46.9062V15.4688H51.0312V13.4062Z" fill="#3A3A3A"/>
<path id="Vector_18" d="M62.375 13.4062H53.0938V15.4688H62.375V13.4062Z" fill="#3A3A3A"/>
</g>
<defs>
<clipPath id="clip0_135_923">
<rect width="66" height="66" fill="white" transform="translate(0.5)"/>
</clipPath>
</defs>
</svg>
