<svg width="20" height="21" viewBox="0 0 20 21" fill="none" xmlns="http://www.w3.org/2000/svg">
<path id="Vector" d="M10 0.5C11.3261 0.5 12.5979 1.02678 13.5355 1.96447C14.4732 2.90215 15 4.17392 15 5.5C15 6.82608 14.4732 8.09785 13.5355 9.03553C12.5979 9.97322 11.3261 10.5 10 10.5C8.67392 10.5 7.40215 9.97322 6.46447 9.03553C5.52678 8.09785 5 6.82608 5 5.5C5 4.17392 5.52678 2.90215 6.46447 1.96447C7.40215 1.02678 8.67392 0.5 10 0.5ZM10 13C15.525 13 20 15.2375 20 18V20.5H0V18C0 15.2375 4.475 13 10 13Z" fill="#3A3A3A"/>
</svg>
