<svg width="66" height="66" viewBox="0 0 66 66" fill="none" xmlns="http://www.w3.org/2000/svg">
<g id="11848177381536057692 (1)">
<path id="Vector" d="M55.8713 40.5147C55.6113 40.5147 55.362 40.4114 55.1782 40.2276C54.9943 40.0438 54.8911 39.7944 54.8911 39.5345V31.3662H49.5C49.24 31.3662 48.9907 31.2629 48.8069 31.0791C48.623 30.8952 48.5198 30.6459 48.5198 30.386C48.5198 30.126 48.623 29.8767 48.8069 29.6929C48.9907 29.509 49.24 29.4058 49.5 29.4058H55.8713C56.1312 29.4058 56.3805 29.509 56.5644 29.6929C56.7482 29.8767 56.8515 30.126 56.8515 30.386V39.5345C56.8515 39.7944 56.7482 40.0438 56.5644 40.2276C56.3805 40.4114 56.1312 40.5147 55.8713 40.5147Z" fill="#3A3A3A"/>
<path id="Vector_2" d="M55.8713 49.6636H50.3169C50.0569 49.6636 49.8076 49.5603 49.6238 49.3765C49.4399 49.1927 49.3367 48.9434 49.3367 48.6834C49.3367 48.4234 49.4399 48.1741 49.6238 47.9903C49.8076 47.8065 50.0569 47.7032 50.3169 47.7032H54.8911V40.5151H50.7482C50.4882 40.5151 50.2389 40.4118 50.0551 40.228C49.8712 40.0442 49.768 39.7949 49.768 39.5349C49.768 39.2749 49.8712 39.0256 50.0551 38.8418C50.2389 38.658 50.4882 38.5547 50.7482 38.5547H55.8713C56.1313 38.5547 56.3806 38.658 56.5644 38.8418C56.7483 39.0256 56.8515 39.2749 56.8515 39.5349V48.6834C56.8515 48.9434 56.7483 49.1927 56.5644 49.3765C56.3806 49.5603 56.1313 49.6636 55.8713 49.6636Z" fill="#3A3A3A"/>
<path id="Vector_3" d="M55.8712 58.812H48.4021C48.1421 58.812 47.8928 58.7088 47.709 58.5249C47.5251 58.3411 47.4219 58.0918 47.4219 57.8318C47.4219 57.5719 47.5251 57.3226 47.709 57.1387C47.8928 56.9549 48.1421 56.8516 48.4021 56.8516H54.891V48.6833C54.891 48.4234 54.9943 48.174 55.1781 47.9902C55.3619 47.8064 55.6112 47.7031 55.8712 47.7031C56.1311 47.7031 56.3805 47.8064 56.5643 47.9902C56.7481 48.174 56.8514 48.4234 56.8514 48.6833V57.8318C56.8514 58.0918 56.7481 58.3411 56.5643 58.5249C56.3805 58.7088 56.1311 58.812 55.8712 58.812Z" fill="#3A3A3A"/>
<path id="Vector_4" d="M18.6238 40.5147C17.1507 40.5147 15.7379 39.9295 14.6962 38.8878C13.6545 37.8461 13.0693 36.4334 13.0693 34.9602C13.0693 33.4871 13.6545 32.0743 14.6962 31.0326C15.7379 29.991 17.1507 29.4058 18.6238 29.4058H29.7327C29.9927 29.4058 30.242 29.509 30.4258 29.6929C30.6096 29.8767 30.7129 30.126 30.7129 30.386C30.7129 30.6459 30.6096 30.8952 30.4258 31.0791C30.242 31.2629 29.9927 31.3662 29.7327 31.3662H18.6238C17.6706 31.3662 16.7564 31.7448 16.0824 32.4188C15.4084 33.0928 15.0297 34.007 15.0297 34.9602C15.0297 35.9134 15.4084 36.8276 16.0824 37.5016C16.7564 38.1756 17.6706 38.5543 18.6238 38.5543C18.8838 38.5543 19.1331 38.6575 19.3169 38.8414C19.5007 39.0252 19.604 39.2745 19.604 39.5345C19.604 39.7944 19.5007 40.0438 19.3169 40.2276C19.1331 40.4114 18.8838 40.5147 18.6238 40.5147Z" fill="#3A3A3A"/>
<path id="Vector_5" d="M55.8713 31.3664C55.6114 31.3664 55.362 31.2631 55.1782 31.0793C54.9944 30.8955 54.8911 30.6462 54.8911 30.3862V16.9902H50.3169C50.0569 16.9902 49.8076 16.8869 49.6238 16.7031C49.4399 16.5193 49.3367 16.2699 49.3367 16.01C49.3367 15.75 49.4399 15.5007 49.6238 15.3169C49.8076 15.1331 50.0569 15.0298 50.3169 15.0298H55.8713C56.1313 15.0298 56.3806 15.1331 56.5644 15.3169C56.7483 15.5007 56.8515 15.75 56.8515 16.01V30.3862C56.8515 30.6462 56.7483 30.8955 56.5644 31.0793C56.3806 31.2631 56.1313 31.3664 55.8713 31.3664Z" fill="#3A3A3A"/>
<path id="Vector_6" d="M20.2574 16.9902H18.6238C18.3638 16.9902 18.1145 16.8869 17.9306 16.7031C17.7468 16.5193 17.6436 16.2699 17.6436 16.01C17.6436 15.75 17.7468 15.5007 17.9306 15.3169C18.1145 15.1331 18.3638 15.0298 18.6238 15.0298H20.2574C20.5174 15.0298 20.7667 15.1331 20.9505 15.3169C21.1343 15.5007 21.2376 15.75 21.2376 16.01C21.2376 16.2699 21.1343 16.5193 20.9505 16.7031C20.7667 16.8869 20.5174 16.9902 20.2574 16.9902Z" fill="#3A3A3A"/>
<path id="Vector_7" d="M18.6238 49.6636C17.1507 49.6636 15.7379 49.0784 14.6962 48.0367C13.6545 46.9951 13.0693 45.5823 13.0693 44.1091C13.0693 42.636 13.6545 41.2232 14.6962 40.1816C15.7379 39.1399 17.1507 38.5547 18.6238 38.5547H31.0396C31.2996 38.5547 31.5489 38.658 31.7327 38.8418C31.9166 39.0256 32.0198 39.2749 32.0198 39.5349C32.0198 39.7949 31.9166 40.0442 31.7327 40.228C31.5489 40.4118 31.2996 40.5151 31.0396 40.5151H18.6238C17.6706 40.5151 16.7564 40.8937 16.0824 41.5678C15.4084 42.2418 15.0297 43.1559 15.0297 44.1091C15.0297 45.0623 15.4084 45.9765 16.0824 46.6505C16.7564 47.3245 17.6706 47.7032 18.6238 47.7032C18.8838 47.7032 19.1331 47.8065 19.3169 47.9903C19.5007 48.1741 19.604 48.4234 19.604 48.6834C19.604 48.9434 19.5007 49.1927 19.3169 49.3765C19.1331 49.5603 18.8838 49.6636 18.6238 49.6636Z" fill="#3A3A3A"/>
<path id="Vector_8" d="M30.7979 58.812H18.6238C17.1507 58.812 15.7379 58.2268 14.6962 57.1852C13.6545 56.1435 13.0693 54.7307 13.0693 53.2576C13.0693 51.7844 13.6545 50.3717 14.6962 49.33C15.7379 48.2883 17.1507 47.7031 18.6238 47.7031H30.7979C31.0578 47.7031 31.3071 47.8064 31.491 47.9902C31.6748 48.174 31.778 48.4234 31.778 48.6833C31.778 48.9433 31.6748 49.1926 31.491 49.3764C31.3071 49.5603 31.0578 49.6635 30.7979 49.6635H18.6238C17.6706 49.6635 16.7564 50.0422 16.0824 50.7162C15.4084 51.3902 15.0297 52.3044 15.0297 53.2576C15.0297 54.2108 15.4084 55.1249 16.0824 55.799C16.7564 56.473 17.6706 56.8516 18.6238 56.8516H30.7979C31.0578 56.8516 31.3071 56.9549 31.491 57.1387C31.6748 57.3226 31.778 57.5719 31.778 57.8318C31.778 58.0918 31.6748 58.3411 31.491 58.5249C31.3071 58.7088 31.0578 58.812 30.7979 58.812Z" fill="#3A3A3A"/>
<path id="Vector_9" d="M48.5721 11.1088H28.4258C28.1658 11.1088 27.9165 11.0055 27.7326 10.8217C27.5488 10.6379 27.4456 10.3886 27.4456 10.1286V3.59397C27.4456 3.334 27.5488 3.08469 27.7326 2.90086C27.9165 2.71704 28.1658 2.61377 28.4258 2.61377H40.626C45.9386 2.61377 48.7616 7.34486 49.5131 9.84763C49.5569 9.99412 49.5659 10.1488 49.5392 10.2994C49.5126 10.45 49.4511 10.5922 49.3596 10.7148C49.2682 10.8373 49.1494 10.9368 49.0126 11.0052C48.8759 11.0736 48.725 11.1091 48.5721 11.1088ZM29.406 9.14842H47.1149C46.2719 7.42981 44.3115 4.57417 40.6194 4.57417H29.406V9.14842Z" fill="#3A3A3A"/>
<path id="Vector_10" d="M42.8021 16.99H36.9209C36.6609 16.99 36.4116 16.8868 36.2278 16.7029C36.0439 16.5191 35.9407 16.2698 35.9407 16.0098V10.1286C35.9407 9.86867 36.0439 9.61935 36.2278 9.43553C36.4116 9.25171 36.6609 9.14844 36.9209 9.14844H42.8021C43.062 9.14844 43.3113 9.25171 43.4952 9.43553C43.679 9.61935 43.7823 9.86867 43.7823 10.1286V16.0098C43.7823 16.2698 43.679 16.5191 43.4952 16.7029C43.3113 16.8868 43.062 16.99 42.8021 16.99ZM37.9011 15.0296H41.8219V11.1088H37.9011V15.0296Z" fill="#3A3A3A"/>
<path id="Vector_11" d="M28.4258 11.1089H23.8515C23.5916 11.1089 23.3423 11.0056 23.1584 10.8218C22.9746 10.638 22.8713 10.3886 22.8713 10.1287V5.55442C22.8713 5.29445 22.9746 5.04513 23.1584 4.86131C23.3423 4.67749 23.5916 4.57422 23.8515 4.57422H28.4258C28.6858 4.57422 28.9351 4.67749 29.1189 4.86131C29.3027 5.04513 29.406 5.29445 29.406 5.55442V10.1287C29.406 10.3886 29.3027 10.638 29.1189 10.8218C28.9351 11.0056 28.6858 11.1089 28.4258 11.1089ZM24.8317 9.14848H27.4456V6.53461H24.8317V9.14848Z" fill="#3A3A3A"/>
<path id="Vector_12" d="M24.126 25.4851C23.9928 25.4825 23.8615 25.4527 23.7402 25.3977C23.6188 25.3426 23.51 25.2634 23.4203 25.1649L22.329 23.956C22.182 23.7977 22.0915 23.5953 22.0714 23.3802C22.0513 23.1651 22.1028 22.9494 22.2179 22.7667L27.4457 14.6637V10.1286C27.4457 9.86867 27.5489 9.61935 27.7327 9.43553C27.9166 9.25171 28.1659 9.14844 28.4259 9.14844H32.3466C32.6066 9.14844 32.8559 9.25171 33.0397 9.43553C33.2236 9.61935 33.3268 9.86867 33.3268 10.1286V16.1601C33.3266 16.4168 33.2257 16.6632 33.0459 16.8463L24.8318 25.191C24.7399 25.2848 24.63 25.3592 24.5088 25.4097C24.3875 25.4602 24.2574 25.4858 24.126 25.4851ZM29.4061 11.1088V14.9512C29.4056 15.139 29.3511 15.3228 29.2492 15.4805L24.675 22.5118L31.3664 15.7615V11.1088H29.4061Z" fill="#3A3A3A"/>
<path id="Vector_13" d="M47.3762 62.7328H31.0395C30.7796 62.7328 30.5302 62.6295 30.3464 62.4457C30.1626 62.2618 30.0593 62.0125 30.0593 61.7526V40.2339C30.0598 39.679 30.1697 39.1296 30.3828 38.6172C30.5958 38.1047 30.9078 37.6393 31.3009 37.2476L37.9401 30.5953C38.2605 30.275 38.4783 29.8665 38.5656 29.4219C38.6528 28.9773 38.6057 28.5168 38.4302 28.0991L34.8819 19.6694C34.8316 19.5494 34.8057 19.4205 34.8057 19.2904C34.8057 19.1602 34.8316 19.0314 34.8819 18.9114L36.2346 15.644C36.3071 15.4638 36.4315 15.3092 36.5921 15.1998C36.7527 15.0905 36.9421 15.0313 37.1364 15.0298H42.5797C42.727 15.0305 42.8721 15.0643 43.0045 15.1288C43.1369 15.1933 43.253 15.2867 43.3443 15.4023C43.6057 15.7225 49.6633 23.4595 51.6237 38.7571C52.4274 44.9781 48.5067 61.2951 48.3564 61.9813C48.304 62.2 48.178 62.394 47.9995 62.5308C47.821 62.6676 47.601 62.7389 47.3762 62.7328ZM32.0197 60.7724H46.5985C47.3631 57.4658 50.3168 44.1547 49.6633 39.0054C48.0035 26.0733 43.2724 18.6761 42.0896 16.9902H37.7898L36.8423 19.2773L40.2338 27.328C40.5646 28.1055 40.6549 28.9643 40.493 29.7936C40.3311 30.6229 39.9245 31.3847 39.3255 31.9807L32.6732 38.6199C32.4628 38.8336 32.2967 39.0868 32.1846 39.3649C32.0724 39.643 32.0164 39.9406 32.0197 40.2405V60.7724Z" fill="#3A3A3A"/>
<path id="Vector_14" d="M14.0495 35.9407C13.7896 35.9407 13.5403 35.8374 13.3564 35.6536C13.1726 35.4698 13.0693 35.2204 13.0693 34.9605V20.5842C13.0711 19.1116 13.6568 17.6998 14.6981 16.6586C15.7394 15.6173 17.1512 15.0315 18.6238 15.0298C18.8838 15.0298 19.1331 15.1331 19.3169 15.3169C19.5007 15.5007 19.604 15.75 19.604 16.01C19.604 16.2699 19.5007 16.5193 19.3169 16.7031C19.1331 16.8869 18.8838 16.9902 18.6238 16.9902C17.6711 16.9919 16.758 17.3711 16.0843 18.0448C15.4107 18.7184 15.0315 19.6316 15.0297 20.5842V34.9605C15.0297 35.2204 14.9265 35.4698 14.7426 35.6536C14.5588 35.8374 14.3095 35.9407 14.0495 35.9407Z" fill="#3A3A3A"/>
<path id="Vector_15" d="M40.5149 50.9702C39.2224 50.9702 37.959 50.5869 36.8844 49.8689C35.8098 49.1509 34.9722 48.1303 34.4776 46.9362C33.9831 45.7422 33.8536 44.4283 34.1058 43.1607C34.3579 41.8931 34.9803 40.7287 35.8942 39.8148C36.8081 38.901 37.9724 38.2786 39.24 38.0264C40.5076 37.7743 41.8215 37.9037 43.0156 38.3983C44.2096 38.8929 45.2302 39.7305 45.9482 40.8051C46.6663 41.8797 47.0495 43.1431 47.0495 44.4355C47.0495 46.1686 46.3611 47.8307 45.1356 49.0562C43.9101 50.2817 42.248 50.9702 40.5149 50.9702ZM40.5149 39.8613C39.6102 39.8613 38.7258 40.1296 37.9736 40.6322C37.2213 41.1348 36.635 41.8492 36.2888 42.685C35.9426 43.5209 35.852 44.4406 36.0285 45.3279C36.205 46.2152 36.6407 47.0303 37.2804 47.67C37.9201 48.3097 38.7352 48.7454 39.6225 48.9219C40.5098 49.0984 41.4295 49.0078 42.2654 48.6616C43.1012 48.3154 43.8156 47.7291 44.3182 46.9769C44.8209 46.2246 45.0891 45.3402 45.0891 44.4355C45.0891 43.2224 44.6072 42.0589 43.7494 41.201C42.8915 40.3432 41.7281 39.8613 40.5149 39.8613Z" fill="#3A3A3A"/>
</g>
</svg>
