<svg width="160" height="160" viewBox="0 0 160 160" fill="none" xmlns="http://www.w3.org/2000/svg">
<path d="M153.35 86.2246C153.514 84.4502 152.839 83.3571 151.709 83.2523C150.509 83.1408 149.946 84.1371 149.603 85.4972L149.196 87.1587C148.677 89.2437 147.7 91.1958 145.119 90.9562C142.968 90.7566 141.427 88.86 141.703 85.8848C142.039 82.2644 144.198 80.8197 146.016 80.5184L145.844 82.3645C144.954 82.6072 143.53 83.5416 143.298 86.0329C143.132 87.8252 143.883 89.0879 145.191 89.2094C146.607 89.3408 147.178 88.2549 147.524 86.8589L147.931 85.1975C148.483 82.9529 149.523 81.2958 151.871 81.5138C154.022 81.7134 155.188 83.7559 154.945 86.3727C154.639 89.6705 152.744 90.9951 151.168 91.2284L151.334 89.4361C152.125 89.0937 153.163 88.232 153.35 86.2246Z" fill="#3A3A3A"/>
<path d="M138.397 101.707L143.775 103.386L145.882 96.6328L140.504 94.9545L141.024 93.2877L153.224 97.0949L152.704 98.7616L147.429 97.1154L145.321 103.868L150.596 105.514L150.076 107.181L137.876 103.374L138.397 101.707Z" fill="#3A3A3A"/>
<path d="M133.728 110.911C135.52 107.852 139.053 107.376 142.33 109.296C145.576 111.197 146.902 114.561 145.128 117.589C143.363 120.602 139.772 121.106 136.526 119.205C133.28 117.303 131.963 113.924 133.728 110.911ZM135.126 111.73C133.843 113.92 135.028 116.241 137.436 117.652C139.812 119.044 142.447 118.96 143.73 116.77C145.013 114.58 143.812 112.25 141.421 110.849C138.982 109.42 136.409 109.54 135.126 111.73Z" fill="#3A3A3A"/>
<path d="M121.788 126.094L131.16 130.909L126.277 121.571L127.304 120.537L139.24 126.756L137.947 128.059L128.816 123.204L133.724 132.414L132.621 133.525L123.261 128.646L128.296 137.78L127.142 138.942L120.697 127.192L121.788 126.094Z" fill="#3A3A3A"/>
<path d="M112.318 133.41L118.116 144.8L112.982 147.413C110.576 148.637 108.681 148.208 107.652 146.187C106.82 144.551 107.179 143.075 108.596 141.93L102.918 138.195L104.602 137.338L110.199 140.952L113.375 139.336L110.762 134.202L112.318 133.41ZM112.264 145.961L115.825 144.148L114.102 140.763L110.541 142.576C109.161 143.278 108.661 144.199 109.257 145.371C109.844 146.526 110.884 146.663 112.264 145.961Z" fill="#3A3A3A"/>
<path d="M95.5947 140.101C99.031 139.226 101.852 141.405 102.79 145.085C103.719 148.731 102.258 152.038 98.8564 152.904C95.4725 153.766 92.59 151.566 91.6613 147.92C90.7325 144.275 92.2108 140.963 95.5947 140.101ZM95.9946 141.671C93.5352 142.298 92.7168 144.772 93.4056 147.476C94.0855 150.145 95.997 151.961 98.4565 151.334C100.916 150.708 101.73 148.216 101.046 145.53C100.348 142.791 98.4541 141.045 95.9946 141.671Z" fill="#3A3A3A"/>
<path d="M81.8174 142.105C85.3621 142.009 87.6331 144.757 87.7357 148.553C87.8373 152.314 85.683 155.217 82.1743 155.312C78.6835 155.406 76.3575 152.624 76.2559 148.864C76.1543 145.103 78.3266 142.199 81.8174 142.105ZM81.8611 143.724C79.324 143.793 77.9799 146.026 78.0553 148.815C78.1296 151.568 79.5934 153.761 82.1305 153.693C84.6676 153.624 86.0113 151.373 85.9364 148.602C85.86 145.777 84.3982 143.656 81.8611 143.724Z" fill="#3A3A3A"/>
<path d="M67.2435 154.229L65.6502 143.422L59.5719 152.491L57.0264 151.914L59.8506 139.45L61.4656 139.816L59.0074 150.665L65.7298 140.709L66.906 140.975L68.669 152.744L71.1033 142L72.6833 142.358L69.8591 154.822L67.2435 154.229Z" fill="#3A3A3A"/>
<path d="M47.422 146.363L46.5929 147.754L36.6496 141.831L37.4787 140.439L41.7004 142.954L47.4119 133.366L48.9119 134.26L43.2004 143.848L47.422 146.363Z" fill="#3A3A3A"/>
<path d="M37.4505 125.597C40.0385 128.021 39.7217 131.571 37.1253 134.343C34.5536 137.089 30.9804 137.639 28.4186 135.239C25.87 132.852 26.172 129.238 28.7438 126.493C31.3155 123.747 34.9018 123.209 37.4505 125.597ZM36.343 126.779C34.4907 125.044 31.9647 125.687 30.0575 127.723C28.1748 129.733 27.6737 132.322 29.5261 134.057C31.3784 135.792 33.9166 135.136 35.8116 133.113C37.7435 131.05 38.1954 128.514 36.343 126.779Z" fill="#3A3A3A"/>
<path d="M26.9133 115.944C25.6705 114.111 23.7268 113.907 21.969 115.099L15.5932 119.424L14.6132 117.979L21.1081 113.574C23.4171 112.008 26.379 112.174 28.2987 115.004C30.2892 117.939 29.3071 120.627 26.9683 122.214L20.4734 126.619L19.4933 125.174L25.8691 120.85C27.6269 119.657 28.1965 117.836 26.9133 115.944Z" fill="#3A3A3A"/>
<path d="M23.4526 107.545L11.5734 112.258L9.4492 106.904C8.45346 104.394 9.05694 102.548 11.1651 101.711C12.8717 101.034 14.3076 101.529 15.3161 103.046L19.5626 97.7404L20.2596 99.4972L16.1403 104.733L17.4547 108.046L22.8087 105.922L23.4526 107.545ZM10.9616 106.323L12.4353 110.038L15.9656 108.637L14.4919 104.923C13.921 103.484 13.0503 102.9 11.8289 103.384C10.6242 103.862 10.3908 104.884 10.9616 106.323Z" fill="#3A3A3A"/>
<path d="M5.8968 76.6574C5.80744 78.4372 6.52902 79.5007 7.6616 79.5576C8.86608 79.618 9.38584 78.5988 9.67107 77.2254L10.0076 75.5481C10.4377 73.4431 11.3307 71.4513 13.9194 71.5813C16.0767 71.6896 17.697 73.5192 17.5472 76.5034C17.3649 80.1348 15.2693 81.6697 13.466 82.0477L13.559 80.1961C14.4382 79.9158 15.8217 78.9219 15.9472 76.4231C16.0375 74.6253 15.2341 73.3955 13.9218 73.3296C12.5016 73.2583 11.9773 74.3674 11.6902 75.7768L11.3537 77.454C10.8975 79.72 9.92908 81.4196 7.57405 81.3014C5.41676 81.1931 4.16504 79.2018 4.29682 76.5771C4.46289 73.2693 6.29959 71.8656 7.86459 71.5657L7.77434 73.3634C6.99853 73.739 5.99789 74.644 5.8968 76.6574Z" fill="#3A3A3A"/>
<path d="M20.097 60.7861L14.6481 59.3538L12.8497 66.1954L18.2986 67.6277L17.8547 69.3163L5.49463 66.0673L5.93851 64.3787L11.283 65.7835L13.0814 58.942L7.73691 57.5371L8.18079 55.8485L20.5409 59.0975L20.097 60.7861Z" fill="#3A3A3A"/>
<path d="M24.3817 51.2469C22.7266 54.3829 19.2182 55.0144 15.8593 53.2417C12.5323 51.4857 11.0589 48.1843 12.6972 45.0801C14.3271 41.9919 17.8925 41.3294 21.2196 43.0854C24.5466 44.8413 26.0116 48.1586 24.3817 51.2469ZM22.949 50.4908C24.1336 48.2462 22.8468 45.9795 20.3794 44.6773C17.9438 43.3918 15.3145 43.5917 14.1299 45.8363C12.9453 48.0808 14.248 50.3559 16.6995 51.6498C19.1988 52.9688 21.7644 52.7353 22.949 50.4908Z" fill="#3A3A3A"/>
<path d="M35.5881 35.5995L26.0146 31.1974L31.3003 40.3129L30.3191 41.3914L18.1234 35.6989L19.3589 34.3408L28.6927 38.7925L23.3876 29.8052L24.4414 28.6468L34.0053 33.1132L28.5766 24.2082L29.6789 22.9966L36.6298 34.4544L35.5881 35.5995Z" fill="#3A3A3A"/>
<path d="M44.4494 27.9905L38.1529 16.8692L43.1654 14.0313C45.5149 12.7011 47.4269 13.0458 48.5443 15.0195C49.4489 16.6172 49.1549 18.1074 47.7905 19.3143L53.6284 22.7937L51.9837 23.7249L46.2324 20.3619L43.1309 22.1178L45.9688 27.1303L44.4494 27.9905ZM43.9478 15.4499L40.4705 17.4187L42.3417 20.7238L45.819 18.755C47.1661 17.9923 47.6253 17.0498 46.978 15.9063C46.3394 14.7785 45.2949 14.6873 43.9478 15.4499Z" fill="#3A3A3A"/>
<path d="M61.1122 20.3954C57.7193 21.4261 54.8019 19.3777 53.6979 15.7437C52.6044 12.1441 53.9133 8.77411 57.2718 7.75384C60.613 6.7388 63.5925 8.80597 64.686 12.4055C65.7796 16.0051 64.4534 19.3803 61.1122 20.3954ZM60.6413 18.8453C63.0697 18.1076 63.7747 15.5983 62.9638 12.9288C62.1632 10.2937 60.1711 8.56615 57.7427 9.30389C55.3142 10.0416 54.6144 12.5681 55.4202 15.2204C56.2416 17.9244 58.2129 19.583 60.6413 18.8453Z" fill="#3A3A3A"/>
<path d="M74.3987 17.7901C70.8622 18.0498 68.4665 15.4102 68.1884 11.6224C67.9129 7.87045 69.9306 4.87064 73.4312 4.61361C76.9138 4.3579 79.3661 7.0295 79.6415 10.7814C79.917 14.5333 77.8813 17.5344 74.3987 17.7901ZM74.2801 16.1745C76.8113 15.9886 78.0507 13.6957 77.8464 10.9132C77.6447 8.16661 76.081 6.04341 73.5498 6.22926C71.0186 6.41512 69.7805 8.72599 69.9835 11.4905C70.1905 14.309 71.7489 16.3603 74.2801 16.1745Z" fill="#3A3A3A"/>
<path d="M88.7104 4.97494L90.7969 15.6979L96.4535 6.35996L99.0227 6.81953L96.7724 19.3999L95.1423 19.1083L97.101 8.15807L90.8417 18.4122L89.6545 18.1998L87.3544 6.52439L85.4147 17.3683L83.82 17.083L86.0703 4.5027L88.7104 4.97494Z" fill="#3A3A3A"/>
<path d="M108.979 11.9386L109.746 10.5116L119.942 15.9894L119.175 17.4164L114.846 15.0907L109.564 24.9217L108.026 24.0953L113.308 14.2644L108.979 11.9386Z" fill="#3A3A3A"/>
<path d="M119.887 32.2438C117.195 29.9349 117.357 26.3738 119.83 23.4912C122.28 20.636 125.825 19.9308 128.489 22.2163C131.14 24.49 130.996 28.1135 128.546 30.9688C126.097 33.824 122.537 34.5175 119.887 32.2438ZM120.942 31.0142C122.868 32.6668 125.363 31.9143 127.18 29.7968C128.973 27.7066 129.361 25.0984 127.435 23.4458C125.508 21.7932 123.001 22.5594 121.196 24.6633C119.356 26.8081 119.015 29.3617 120.942 31.0142Z" fill="#3A3A3A"/>
<path d="M130.824 41.3818C132.146 43.1578 134.097 43.2765 135.801 42.0083L141.981 37.4085L143.024 38.8091L136.728 43.4949C134.49 45.1608 131.524 45.1247 129.482 42.3813C127.364 39.5367 128.228 36.8074 130.495 35.1201L136.79 30.4343L137.833 31.8349L131.653 36.4347C129.949 37.7029 129.46 39.548 130.824 41.3818Z" fill="#3A3A3A"/>
<path d="M134.695 49.6622L146.351 44.4216L148.713 49.675C149.82 52.1376 149.3 54.0095 147.232 54.9395C145.557 55.6924 144.1 55.2619 143.025 53.7916L139.02 59.2826L138.245 57.5588L142.126 52.1433L140.665 48.8927L135.411 51.2546L134.695 49.6622ZM147.228 50.3229L145.59 46.6783L142.126 48.2358L143.764 51.8803C144.399 53.2922 145.295 53.8367 146.494 53.2978C147.676 52.7664 147.863 51.7348 147.228 50.3229Z" fill="#3A3A3A"/>
<path d="M92.0413 79.7854C93.3753 80.5541 93.3769 82.4786 92.0442 83.2495L74.7801 93.2362C73.4475 94.0071 71.78 93.0463 71.7787 91.5067L71.762 71.5622C71.7607 70.0226 73.4266 69.0589 74.7606 69.8276L92.0413 79.7854Z" fill="#3A3A3A"/>
</svg>
