<svg width="66" height="66" viewBox="0 0 66 66" fill="none" xmlns="http://www.w3.org/2000/svg">
<g id="2714854771586786105">
<path id="Vector" d="M65.2957 17.0396C64.3995 14.6182 61.7224 13.1682 59.1824 13.8128L55.6329 11.6482C54.2922 10.8366 52.6721 10.6778 51.1892 11.2109L38.2037 15.9361L27.5406 0.868523C27.2724 0.490054 26.7805 0.337429 26.3464 0.49521L20.5404 2.60927C20.0042 2.80418 19.7289 3.39509 19.9238 3.9303L25.9133 20.4066L13.002 25.105L6.06685 17.3479C5.78739 17.0344 5.34292 16.921 4.94589 17.0664L1.06942 18.4771C0.533167 18.671 0.257824 19.264 0.45273 19.7981L6.0947 35.302C6.2432 35.7103 6.63095 35.9805 7.06304 35.9805C7.06717 35.9805 7.07129 35.9805 7.07645 35.9805L28.9286 35.7124C29.0441 35.7114 29.1607 35.6897 29.2689 35.6495L31.2046 34.9431L36.8486 50.449C37.0002 50.8676 37.3962 51.1286 37.817 51.1286C37.9335 51.1286 38.0531 51.1079 38.1697 51.0657L43.9849 48.9485C44.4221 48.7897 44.6985 48.3576 44.6593 47.8946L43.2207 30.5726L62.2164 23.655C64.2448 22.9166 65.6071 20.9655 65.6071 18.7989C65.6081 18.2131 65.505 17.6243 65.2957 17.0396ZM22.2142 4.19534L26.3124 2.70312L36.1959 16.6662L27.851 19.7022L22.2142 4.19534ZM5.5636 27.812L2.74314 20.0632L4.99539 19.2444L10.9158 25.865L5.5636 27.812ZM38.4347 48.7752L31.3799 29.3939L40.7705 25.9764L42.5401 47.282L38.4347 48.7752ZM61.512 21.7194L43.0444 28.4441L42.7134 24.4604C42.6876 24.1397 42.5133 23.8499 42.2421 23.6767C41.9709 23.5034 41.6336 23.4684 41.3335 23.5756L29.7052 27.8079C29.4484 27.9017 29.239 28.0935 29.1235 28.341C29.008 28.5896 28.9957 28.8731 29.0895 29.1299L30.5003 33.0054L28.7286 33.652L7.78286 33.9098L6.27104 29.7507L51.8915 13.1507C52.7835 12.829 53.7591 12.9249 54.5624 13.4106L55.5504 14.0128L52.5226 15.1152L53.228 17.054L57.8047 15.3885L58.5028 15.8144C58.7679 15.9774 59.0948 16.0093 59.3845 15.9062C61.0263 15.3215 62.7908 16.2094 63.3579 17.7449C63.4827 18.0956 63.5467 18.4503 63.5467 18.8009C63.5456 20.1034 62.7279 21.2759 61.512 21.7194Z" fill="#3A3A3A"/>
<path id="Vector_2" d="M47.6771 16.8799L45.7397 17.5845L46.4447 19.5228L48.3821 18.8182L47.6771 16.8799Z" fill="#3A3A3A"/>
<path id="Vector_3" d="M43.8002 18.2905L41.8628 18.9951L42.5678 20.9335L44.5051 20.2288L43.8002 18.2905Z" fill="#3A3A3A"/>
<path id="Vector_4" d="M39.9252 19.7021L37.9878 20.4067L38.6928 22.3451L40.6301 21.6405L39.9252 19.7021Z" fill="#3A3A3A"/>
<path id="Vector_5" d="M36.0482 21.1128L34.1108 21.8174L34.8158 23.7557L36.7532 23.0511L36.0482 21.1128Z" fill="#3A3A3A"/>
<path id="Vector_6" d="M32.1717 22.5234L30.2344 23.228L30.9393 25.1664L32.8767 24.4618L32.1717 22.5234Z" fill="#3A3A3A"/>
<path id="Vector_7" d="M28.2953 23.9345L26.3579 24.6392L27.0629 26.5775L29.0002 25.8729L28.2953 23.9345Z" fill="#3A3A3A"/>
<path id="Vector_8" d="M24.4183 25.3452L22.481 26.0498L23.1859 27.9881L25.1233 27.2835L24.4183 25.3452Z" fill="#3A3A3A"/>
<path id="Vector_9" d="M20.5439 26.7525L18.606 27.4585L19.312 29.3964L21.2499 28.6904L20.5439 26.7525Z" fill="#3A3A3A"/>
<path id="Vector_10" d="M16.6674 28.1636L14.7295 28.8696L15.4355 30.8076L17.3734 30.1016L16.6674 28.1636Z" fill="#3A3A3A"/>
<path id="Vector_11" d="M19.5938 45.375H25.971C26.3979 46.5723 27.5323 47.4375 28.875 47.4375C30.5807 47.4375 31.9688 46.0494 31.9688 44.3438C31.9688 42.6381 30.5807 41.25 28.875 41.25C27.5323 41.25 26.3979 42.1152 25.971 43.3125H19.5938C16.1813 43.3125 13.4062 46.0876 13.4062 49.5C13.4062 52.9124 16.1813 55.6875 19.5938 55.6875H37.125V53.625H19.5938C17.3188 53.625 15.4688 51.7749 15.4688 49.5C15.4688 47.2251 17.3188 45.375 19.5938 45.375ZM28.875 43.3125C29.4443 43.3125 29.9062 43.7755 29.9062 44.3438C29.9062 44.912 29.4443 45.375 28.875 45.375C28.3057 45.375 27.8438 44.912 27.8438 44.3438C27.8438 43.7755 28.3057 43.3125 28.875 43.3125Z" fill="#3A3A3A"/>
<path id="Vector_12" d="M41.25 53.625H39.1875V55.6875H41.25V53.625Z" fill="#3A3A3A"/>
<path id="Vector_13" d="M52.0781 53.625H43.3125V55.6875H52.0781C53.5002 55.6875 54.6562 56.8446 54.6562 58.2656C54.6562 59.6867 53.5002 60.8438 52.0781 60.8438H19.5938V62.9062H52.0781C54.6367 62.9062 56.7188 60.8242 56.7188 58.2656C56.7188 55.7071 54.6367 53.625 52.0781 53.625Z" fill="#3A3A3A"/>
<path id="Vector_14" d="M5.15625 58.7812C3.45056 58.7812 2.0625 60.1693 2.0625 61.875C2.0625 63.5807 3.45056 64.9688 5.15625 64.9688C6.49894 64.9688 7.63331 64.1035 8.06025 62.9062H17.5312V60.8438H8.06025C7.63331 59.6465 6.49894 58.7812 5.15625 58.7812ZM5.15625 62.9062C4.587 62.9062 4.125 62.4432 4.125 61.875C4.125 61.3068 4.587 60.8438 5.15625 60.8438C5.7255 60.8438 6.1875 61.3068 6.1875 61.875C6.1875 62.4432 5.7255 62.9062 5.15625 62.9062Z" fill="#3A3A3A"/>
</g>
</svg>
