<svg width="67" height="66" viewBox="0 0 67 66" fill="none" xmlns="http://www.w3.org/2000/svg">
<g id="18666151701637903385 1">
<path id="Vector" d="M22.3991 56.2752C22.646 56.3931 22.9295 56.4082 23.1874 56.3171C23.4452 56.2261 23.6564 56.0362 23.7743 55.7894C23.8923 55.5427 23.9073 55.2591 23.8163 55.0013C23.7252 54.7434 23.5354 54.5322 23.2886 54.4143C22.8552 54.2071 22.4221 53.9836 22.0012 53.7499C21.8827 53.6831 21.7523 53.6404 21.6173 53.6245C21.4823 53.6084 21.3455 53.619 21.2146 53.656C21.0838 53.693 20.9616 53.7554 20.855 53.8399C20.7484 53.9243 20.6595 54.029 20.5935 54.1478C20.5275 54.2667 20.4856 54.3974 20.4704 54.5325C20.4551 54.6676 20.4667 54.8043 20.5045 54.9349C20.5422 55.0655 20.6055 55.1875 20.6906 55.2934C20.7756 55.3995 20.8807 55.4878 21 55.553C21.4571 55.8071 21.928 56.05 22.3991 56.2752Z" fill="#3A3A3A"/>
<path id="Vector_2" d="M27.5087 58.0813C27.7749 58.1446 28.0552 58.0996 28.2882 57.9563C28.5212 57.8128 28.6877 57.5829 28.751 57.3167C28.8144 57.0505 28.7694 56.7701 28.6259 56.5372C28.4826 56.3042 28.2525 56.1377 27.9863 56.0744C27.5093 55.9611 27.031 55.831 26.5629 55.6877C26.4327 55.6454 26.2953 55.6294 26.1588 55.6407C26.0223 55.6521 25.8894 55.6905 25.7678 55.7537C25.6464 55.817 25.5386 55.9038 25.4511 56.0092C25.3636 56.1145 25.2978 56.2362 25.2578 56.3673C25.2178 56.4982 25.2044 56.6359 25.2181 56.7722C25.2319 56.9085 25.2727 57.0407 25.3382 57.1611C25.4035 57.2813 25.4923 57.3874 25.5992 57.4732C25.7061 57.5587 25.8289 57.6223 25.9606 57.6599C26.4697 57.8167 26.9903 57.958 27.5087 58.0813Z" fill="#3A3A3A"/>
<path id="Vector_3" d="M33.5 58.7811C33.7735 58.7811 34.0357 58.6725 34.2292 58.4791C34.4226 58.2857 34.5312 58.0234 34.5312 57.7499C34.5312 57.4763 34.4226 57.214 34.2292 57.0206C34.0357 56.8273 33.7735 56.7186 33.5 56.7186C32.9174 56.7186 32.3287 56.6972 31.7502 56.6551C31.4774 56.6352 31.2079 56.7245 31.001 56.9033C30.794 57.0823 30.6666 57.3359 30.6468 57.6087C30.6269 57.8815 30.7162 58.151 30.895 58.3579C31.0738 58.5648 31.3276 58.6923 31.6004 58.7122C32.2286 58.7579 32.8683 58.7811 33.5 58.7811Z" fill="#3A3A3A"/>
<path id="Vector_4" d="M43.344 49.3549L39.2869 51.8906C38.2685 52.5225 37.429 53.4046 36.848 54.4528C36.267 55.501 35.9639 56.6805 35.9678 57.8789C35.9678 58.1524 36.0765 58.4148 36.2698 58.6081C36.4632 58.8015 36.7255 58.9102 36.9991 58.9102H45.912C46.1856 58.9102 46.4478 58.8015 46.6412 58.6081C46.8346 58.4148 46.9433 58.1524 46.9433 57.8789C46.9433 57.6054 46.8346 57.343 46.6412 57.1497C46.4478 56.9563 46.1856 56.8477 45.912 56.8477H38.136C38.2732 56.1888 38.5428 55.5647 38.9285 55.0132C39.3142 54.4617 39.8081 53.9944 40.3799 53.6396L44.4371 51.1038C45.4188 50.4901 46.1742 49.5736 46.589 48.4927C47.004 47.4117 47.0557 46.2251 46.7365 45.1123C46.4173 43.9993 45.7446 43.0205 44.8199 42.3237C43.8952 41.6269 42.7689 41.25 41.6111 41.25H41.3C39.8863 41.2515 38.531 41.814 37.5313 42.8135C36.5316 43.8132 35.9694 45.1685 35.9678 46.5822V47.8518C35.9678 48.1253 36.0765 48.3877 36.2698 48.581C36.4632 48.7744 36.7255 48.8831 36.9991 48.8831C37.2726 48.8831 37.5348 48.7744 37.7283 48.581C37.9216 48.3877 38.0303 48.1253 38.0303 47.8518V46.5822C38.0312 45.7153 38.376 44.8843 38.989 44.2712C39.6021 43.6582 40.4331 43.3134 41.3 43.3125H41.6111C42.321 43.3125 43.0116 43.5436 43.5787 43.971C44.1456 44.3981 44.5581 44.9983 44.7539 45.6808C44.9496 46.3633 44.9179 47.0909 44.6636 47.7537C44.4091 48.4165 43.9459 48.9786 43.344 49.3549Z" fill="#3A3A3A"/>
<path id="Vector_5" d="M57.0529 41.25H53.7106C53.5088 41.25 53.3115 41.3093 53.143 41.4203C52.9744 41.5314 52.8423 41.6896 52.7627 41.8751L49.4203 49.6739C49.3653 49.8023 49.3369 49.9405 49.3369 50.0801V52.3084C49.3369 52.5819 49.4456 52.8442 49.6391 53.0376C49.8324 53.2309 50.0948 53.3396 50.3682 53.3396H56.0216V57.8789C56.0216 58.1524 56.1303 58.4148 56.3238 58.6081C56.5171 58.8015 56.7794 58.9102 57.0529 58.9102C57.3264 58.9102 57.5887 58.8015 57.7821 58.6081C57.9756 58.4148 58.0841 58.1524 58.0841 57.8789V53.3396H59.2811C59.5547 53.3396 59.817 53.2309 60.0104 53.0376C60.2038 52.8442 60.3124 52.5819 60.3124 52.3084C60.3124 52.0348 60.2038 51.7725 60.0104 51.5791C59.817 51.3858 59.5547 51.2771 59.2811 51.2771H58.0841V42.2812C58.0841 42.0077 57.9756 41.7454 57.7821 41.552C57.5887 41.3587 57.3264 41.25 57.0529 41.25ZM56.0216 51.2771H51.3994V50.2917L54.3906 43.3125H56.0216V51.2771Z" fill="#3A3A3A"/>
<path id="Vector_6" d="M24.5208 40.5208C24.425 40.6166 24.3491 40.7302 24.2973 40.8553C24.2454 40.9805 24.2188 41.1145 24.2188 41.25C24.2188 41.3855 24.2454 41.5195 24.2973 41.6447C24.3491 41.7698 24.425 41.8834 24.5208 41.9792C24.6166 42.075 24.7302 42.1509 24.8554 42.2027C24.9805 42.2546 25.1146 42.2812 25.25 42.2812C25.3855 42.2812 25.5195 42.2546 25.6447 42.2027C25.7697 42.1509 25.8834 42.075 25.9792 41.9792L32.1667 35.7917C32.5458 35.9734 32.9579 36.0758 33.3779 36.0928C33.798 36.1099 34.2171 36.0412 34.6096 35.8909C35.0021 35.7405 35.36 35.5119 35.6612 35.2187C35.9625 34.9255 36.2008 34.5739 36.3617 34.1857C36.5226 33.7973 36.6026 33.3803 36.597 32.9599C36.5913 32.5395 36.5 32.1249 36.3287 31.741C36.1574 31.3571 35.9096 31.0121 35.6007 30.7273C35.2917 30.4422 34.9278 30.2232 34.5312 30.0836V14.4375C34.5312 14.164 34.4226 13.9016 34.2292 13.7083C34.0359 13.5149 33.7735 13.4062 33.5 13.4062C33.2265 13.4062 32.9643 13.5149 32.7708 13.7083C32.5774 13.9016 32.4688 14.164 32.4688 14.4375V30.0836C32.0597 30.2281 31.6856 30.4569 31.3709 30.7555C31.0561 31.0539 30.8077 31.4152 30.6416 31.816C30.4756 32.2168 30.3958 32.6481 30.4074 33.0817C30.4189 33.5152 30.5216 33.9417 30.7087 34.333L24.5208 40.5208ZM33.5 31.9688C33.7039 31.9688 33.9033 32.0292 34.073 32.1425C34.2425 32.2558 34.3748 32.417 34.4527 32.6054C34.5309 32.7937 34.5512 33.0012 34.5114 33.2012C34.4717 33.4013 34.3735 33.585 34.2292 33.7292C34.085 33.8735 33.9013 33.9717 33.7012 34.0114C33.5012 34.0512 33.2939 34.0309 33.1054 33.9527C32.917 33.8748 32.756 33.7425 32.6425 33.573C32.5292 33.4033 32.4688 33.2039 32.4688 33C32.4691 32.7266 32.5778 32.4645 32.7712 32.2712C32.9645 32.0778 33.2266 31.969 33.5 31.9688Z" fill="#3A3A3A"/>
<path id="Vector_7" d="M61.2997 34.5911C61.2039 34.4953 61.0902 34.4194 60.965 34.3676C60.84 34.3157 60.7058 34.2891 60.5704 34.2891C60.435 34.2891 60.3009 34.3157 60.1757 34.3676C60.0507 34.4194 59.937 34.4953 59.8412 34.5911L59.1821 35.2502C59.2466 34.5025 59.2814 33.7518 59.2814 33C59.2814 18.7842 47.7159 7.21875 33.5001 7.21875C19.2843 7.21875 7.71885 18.7842 7.71885 33C7.70804 36.9207 8.59652 40.7915 10.316 44.315C12.0354 47.8385 14.5399 50.9208 17.6372 53.3248C17.7438 53.4091 17.866 53.4713 17.9968 53.5082C18.1275 53.5451 18.2643 53.5558 18.3993 53.5395C18.5342 53.5234 18.6646 53.4808 18.7829 53.414C18.9014 53.3472 19.0054 53.2577 19.089 53.1508C19.1727 53.0436 19.2343 52.921 19.2705 52.7901C19.3068 52.6591 19.3167 52.5223 19.2998 52.3875C19.2829 52.2527 19.2395 52.1225 19.1722 52.0044C19.1048 51.8864 19.0148 51.7829 18.9073 51.6998C16.0577 49.488 13.7532 46.6522 12.1712 43.4105C10.5891 40.1686 9.77156 36.6072 9.78135 33C9.78135 19.9214 20.4216 9.28125 33.5001 9.28125C46.5787 9.28125 57.2189 19.9214 57.2189 33C57.2189 33.8333 57.1754 34.666 57.0889 35.4947L56.251 34.3311C56.0899 34.1125 55.8491 33.9662 55.5809 33.924C55.3126 33.8818 55.0386 33.9472 54.8183 34.1059C54.5978 34.2644 54.4489 34.5037 54.4038 34.7714C54.3587 35.0393 54.4211 35.314 54.5773 35.5361L56.7816 38.597C56.8654 38.7754 56.9988 38.9259 57.1659 39.0306C57.3331 39.1353 57.5267 39.1896 57.7239 39.1871C57.7277 39.1871 57.7314 39.1871 57.735 39.1871C57.8704 39.1871 58.0046 39.1604 58.1296 39.1086C58.2548 39.0568 58.3685 38.9809 58.4642 38.8851L61.3002 36.0491C61.4934 35.8557 61.6018 35.5935 61.6018 35.3201C61.6017 35.0466 61.493 34.7844 61.2997 34.5911Z" fill="#3A3A3A"/>
<path id="Vector_8" d="M55.0494 30.8356C54.5862 26.238 52.6656 21.9088 49.5678 18.4802C46.47 15.0514 42.3573 12.7028 37.8301 11.7769C37.5621 11.7226 37.2834 11.7769 37.0554 11.9279C36.8274 12.079 36.6688 12.3145 36.6144 12.5825C36.56 12.8506 36.6142 13.1293 36.7653 13.3573C36.9164 13.5852 37.1519 13.7439 37.4199 13.7983C41.5151 14.6363 45.2354 16.7612 48.0376 19.8629C50.8399 22.9645 52.5775 26.8806 52.9969 31.0395C53.0222 31.2939 53.141 31.5299 53.3305 31.7016C53.5199 31.8733 53.7662 31.9686 54.0219 31.9688C54.0563 31.9688 54.0907 31.9671 54.125 31.9638C54.2598 31.9504 54.3907 31.9107 54.51 31.8467C54.6294 31.7828 54.7351 31.6959 54.821 31.5911C54.9068 31.4865 54.9711 31.3658 55.0103 31.2361C55.0495 31.1064 55.0628 30.9704 55.0494 30.8356Z" fill="#3A3A3A"/>
</g>
</svg>
